<?xml version="1.0" standalone="no"?>
<!DOCTYPE svg PUBLIC "-//W3C//DTD SVG 20010904//EN"
 "http://www.w3.org/TR/2001/REC-SVG-20010904/DTD/svg10.dtd">
<svg version="1.0" xmlns="http://www.w3.org/2000/svg"
 width="124.000000pt" height="166.000000pt" viewBox="0 0 124.000000 166.000000"
 preserveAspectRatio="xMidYMid meet">
<metadata>
Created by potrace 1.16, written by Peter Selinger 2001-2019
</metadata>
<g transform="translate(0.000000,166.000000) scale(0.100000,-0.100000)"
fill="#000000" stroke="none">
<path d="M683 1225 c4 -53 11 -104 17 -113 8 -13 9 -11 5 13 -12 83 -15 115
-11 115 9 0 38 -117 57 -225 16 -88 70 -284 95 -340 4 -10 -148 -45 -263 -61
-36 -6 -43 -4 -43 11 0 31 60 380 69 400 5 11 14 43 20 70 6 28 13 60 17 73 4
12 2 22 -4 22 -22 0 -58 -150 -103 -427 -20 -122 -26 -143 -41 -143 -10 0 -27
9 -39 21 -11 11 -24 18 -27 14 -12 -12 15 -40 47 -50 31 -9 32 -12 27 -45 -3
-19 -12 -96 -21 -170 -8 -74 -18 -159 -21 -187 -5 -35 -3 -53 4 -53 11 0 17
28 32 175 6 55 15 137 21 183 11 80 12 82 39 82 15 0 87 12 160 26 72 14 135
22 139 18 24 -27 110 -289 145 -442 12 -54 13 -62 0 -51 -21 18 -17 -5 7 -35
14 -17 25 -24 31 -18 13 13 -58 283 -115 437 l-44 120 24 3 c36 5 29 33 -8 30
-30 -3 -32 -1 -60 76 -16 44 -43 147 -59 230 -17 83 -38 180 -49 216 -10 36
-22 77 -25 93 -4 15 -11 27 -18 27 -8 0 -9 -27 -5 -95z"/>
</g>
</svg>
