<?xml version="1.0" standalone="no"?>
<!DOCTYPE svg PUBLIC "-//W3C//DTD SVG 20010904//EN"
 "http://www.w3.org/TR/2001/REC-SVG-20010904/DTD/svg10.dtd">
<svg version="1.0" xmlns="http://www.w3.org/2000/svg"
 width="124.000000pt" height="166.000000pt" viewBox="0 0 124.000000 166.000000"
 preserveAspectRatio="xMidYMid meet">
<metadata>
Created by potrace 1.16, written by Peter Selinger 2001-2019
</metadata>
<g transform="translate(0.000000,166.000000) scale(0.100000,-0.100000)"
fill="#000000" stroke="none">
<path d="M696 1414 c-9 -8 -16 -30 -16 -48 0 -44 -13 -115 -67 -361 -36 -166
-50 -214 -67 -227 -17 -15 -18 -20 -7 -27 12 -8 11 -23 -8 -98 -32 -128 -102
-366 -113 -379 -5 -7 -4 -23 2 -40 11 -29 11 -29 28 -8 11 13 44 26 90 37 104
24 174 62 240 129 139 143 188 303 118 385 -21 24 -31 27 -117 32 l-94 6 48
28 c62 37 153 127 204 202 42 63 128 225 138 261 10 39 -23 63 -110 79 -44 8
-102 21 -129 30 -63 19 -120 19 -140 -1z m189 -33 c175 -43 165 -39 165 -69 0
-34 -95 -205 -167 -299 -30 -40 -83 -94 -116 -119 -66 -49 -156 -99 -164 -90
-3 3 16 92 42 198 32 131 49 223 52 288 3 52 10 101 16 108 13 16 48 13 172
-17z m-30 -605 c89 -37 54 -209 -69 -343 -81 -89 -167 -136 -290 -158 -35 -6
-38 -5 -32 12 4 10 30 106 57 213 72 286 66 267 97 278 42 16 197 14 237 -2z"/>
</g>
</svg>
