<?xml version="1.0" standalone="no"?>
<!DOCTYPE svg PUBLIC "-//W3C//DTD SVG 20010904//EN"
 "http://www.w3.org/TR/2001/REC-SVG-20010904/DTD/svg10.dtd">
<svg version="1.0" xmlns="http://www.w3.org/2000/svg"
 width="124.000000pt" height="166.000000pt" viewBox="0 0 124.000000 166.000000"
 preserveAspectRatio="xMidYMid meet">
<metadata>
Created by potrace 1.16, written by Peter Selinger 2001-2019
</metadata>
<g transform="translate(0.000000,166.000000) scale(0.100000,-0.100000)"
fill="#000000" stroke="none">
<path d="M543 1273 c-6 -32 -27 -128 -47 -213 -43 -184 -127 -551 -129 -565
-1 -5 2 -12 7 -15 12 -7 29 54 77 275 22 105 58 267 79 360 48 207 48 207 34
212 -5 2 -15 -22 -21 -54z"/>
<path d="M793 1108 c-21 -18 -102 -98 -180 -177 l-143 -144 56 -34 c31 -19 61
-39 68 -46 6 -7 53 -59 105 -117 51 -58 97 -106 102 -108 26 -10 1 31 -57 93
-36 39 -82 90 -102 114 -20 24 -59 56 -87 72 l-52 29 150 151 c98 100 152 148
157 140 5 -8 12 -4 23 13 36 54 16 60 -40 14z"/>
</g>
</svg>
