<?xml version="1.0" standalone="no"?>
<!DOCTYPE svg PUBLIC "-//W3C//DTD SVG 20010904//EN"
 "http://www.w3.org/TR/2001/REC-SVG-20010904/DTD/svg10.dtd">
<svg version="1.0" xmlns="http://www.w3.org/2000/svg"
 width="124.000000pt" height="166.000000pt" viewBox="0 0 124.000000 166.000000"
 preserveAspectRatio="xMidYMid meet">
<metadata>
Created by potrace 1.16, written by Peter Selinger 2001-2019
</metadata>
<g transform="translate(0.000000,166.000000) scale(0.100000,-0.100000)"
fill="#000000" stroke="none">
<path d="M511 1143 c-6 -82 -27 -231 -46 -333 -40 -210 -85 -500 -85 -546 0
-55 14 -58 162 -30 73 14 208 41 301 61 92 19 183 35 203 35 29 0 35 3 32 17
-2 10 -11 16 -19 15 -151 -37 -646 -129 -653 -122 -11 11 5 153 39 350 72 409
83 485 89 588 10 166 -9 137 -23 -35z"/>
</g>
</svg>
