<?xml version="1.0" standalone="no"?>
<!DOCTYPE svg PUBLIC "-//W3C//DTD SVG 20010904//EN"
 "http://www.w3.org/TR/2001/REC-SVG-20010904/DTD/svg10.dtd">
<svg version="1.0" xmlns="http://www.w3.org/2000/svg"
 width="124.000000pt" height="166.000000pt" viewBox="0 0 124.000000 166.000000"
 preserveAspectRatio="xMidYMid meet">
<metadata>
Created by potrace 1.16, written by Peter Selinger 2001-2019
</metadata>
<g transform="translate(0.000000,166.000000) scale(0.100000,-0.100000)"
fill="#000000" stroke="none">
<path d="M413 1308 c-60 -75 -308 -938 -286 -994 9 -24 20 -15 39 33 27 68 28
72 4 33 l-21 -35 6 49 c10 72 156 600 195 701 l12 30 13 -30 c16 -37 19 -23 5
27 -8 29 -7 45 5 73 17 42 32 42 58 -2 24 -41 41 -129 71 -364 26 -198 42
-269 62 -276 6 -2 28 22 49 54 21 32 81 119 135 193 53 74 113 162 133 195
l37 60 -7 -50 c-10 -73 -10 -770 1 -770 5 0 8 105 7 235 -1 235 13 585 25 628
13 46 -15 19 -60 -57 -51 -86 -303 -444 -316 -449 -11 -4 -26 74 -50 263 -34
269 -55 352 -98 384 -24 17 -25 21 -14 46 14 30 11 43 -5 23z"/>
</g>
</svg>
