<?xml version="1.0" standalone="no"?>
<!DOCTYPE svg PUBLIC "-//W3C//DTD SVG 20010904//EN"
 "http://www.w3.org/TR/2001/REC-SVG-20010904/DTD/svg10.dtd">
<svg version="1.0" xmlns="http://www.w3.org/2000/svg"
 width="124.000000pt" height="166.000000pt" viewBox="0 0 124.000000 166.000000"
 preserveAspectRatio="xMidYMid meet">
<metadata>
Created by potrace 1.16, written by Peter Selinger 2001-2019
</metadata>
<g transform="translate(0.000000,166.000000) scale(0.100000,-0.100000)"
fill="#000000" stroke="none">
<path d="M598 984 c-41 -21 -133 -146 -183 -248 -71 -143 -90 -267 -60 -396
21 -87 38 -122 80 -159 89 -78 224 -9 350 180 108 160 156 317 138 444 -14 99
-36 140 -87 165 -57 27 -90 25 -161 -9 -70 -35 -47 -41 35 -10 113 43 178 -13
195 -169 13 -112 -33 -248 -139 -411 -184 -284 -376 -261 -402 49 -11 130 32
267 130 414 63 94 101 133 135 138 20 2 22 5 10 15 -11 9 -20 8 -41 -3z"/>
</g>
</svg>
