<?xml version="1.0" standalone="no"?>
<!DOCTYPE svg PUBLIC "-//W3C//DTD SVG 20010904//EN"
 "http://www.w3.org/TR/2001/REC-SVG-20010904/DTD/svg10.dtd">
<svg version="1.0" xmlns="http://www.w3.org/2000/svg"
 width="124.000000pt" height="166.000000pt" viewBox="0 0 124.000000 166.000000"
 preserveAspectRatio="xMidYMid meet">
<metadata>
Created by potrace 1.16, written by Peter Selinger 2001-2019
</metadata>
<g transform="translate(0.000000,166.000000) scale(0.100000,-0.100000)"
fill="#000000" stroke="none">
<path d="M627 1423 c-20 -68 -29 -119 -47 -270 -25 -211 -51 -383 -90 -595
-17 -90 -40 -210 -50 -268 -21 -114 -25 -164 -11 -156 8 6 22 66 26 121 2 17
19 114 39 218 20 103 36 192 36 196 0 5 39 33 88 62 254 152 325 222 358 350
23 89 13 131 -48 195 -59 62 -100 84 -161 84 -66 0 -107 -36 -107 -95 0 -24 4
-46 9 -50 6 -3 8 9 4 30 -8 48 16 81 68 95 57 16 99 -1 164 -64 62 -61 74
-101 57 -183 -16 -76 -69 -152 -146 -209 -76 -56 -268 -176 -273 -170 -3 2 5
64 16 137 11 74 27 195 36 269 8 74 23 175 31 223 9 48 14 90 11 93 -3 3 -8
-3 -10 -13z"/>
</g>
</svg>
