<?xml version="1.0" standalone="no"?>
<!DOCTYPE svg PUBLIC "-//W3C//DTD SVG 20010904//EN"
 "http://www.w3.org/TR/2001/REC-SVG-20010904/DTD/svg10.dtd">
<svg version="1.0" xmlns="http://www.w3.org/2000/svg"
 width="124.000000pt" height="166.000000pt" viewBox="0 0 124.000000 166.000000"
 preserveAspectRatio="xMidYMid meet">
<metadata>
Created by potrace 1.16, written by Peter Selinger 2001-2019
</metadata>
<g transform="translate(0.000000,166.000000) scale(0.100000,-0.100000)"
fill="#000000" stroke="none">
<path d="M762 1233 c-74 -36 -174 -177 -234 -327 -64 -164 -57 -331 18 -397
64 -56 193 -83 281 -59 37 10 62 28 105 73 32 32 61 56 66 54 4 -3 30 -49 57
-101 27 -53 53 -96 57 -96 14 0 9 11 -51 125 -33 62 -56 116 -51 121 21 22 90
175 105 234 22 84 17 212 -10 255 -51 82 -76 90 -163 54 -68 -29 -57 -44 13
-17 74 28 97 20 129 -44 21 -42 26 -66 26 -128 0 -42 -7 -101 -16 -131 -18
-61 -90 -209 -102 -209 -13 0 -134 249 -128 265 3 8 1 15 -5 15 -27 0 -15 -41
51 -170 l71 -141 -36 -45 c-20 -24 -53 -56 -72 -72 -34 -25 -44 -27 -127 -27
-81 0 -97 3 -142 28 -97 54 -125 159 -85 317 24 94 93 238 152 318 64 84 140
122 207 103 17 -5 32 -6 32 -1 0 23 -102 26 -148 3z"/>
</g>
</svg>
