<?xml version="1.0" standalone="no"?>
<!DOCTYPE svg PUBLIC "-//W3C//DTD SVG 20010904//EN"
 "http://www.w3.org/TR/2001/REC-SVG-20010904/DTD/svg10.dtd">
<svg version="1.0" xmlns="http://www.w3.org/2000/svg"
 width="124.000000pt" height="166.000000pt" viewBox="0 0 124.000000 166.000000"
 preserveAspectRatio="xMidYMid meet">
<metadata>
Created by potrace 1.16, written by Peter Selinger 2001-2019
</metadata>
<g transform="translate(0.000000,166.000000) scale(0.100000,-0.100000)"
fill="#000000" stroke="none">
<path d="M647 1300 c-14 -11 -32 -17 -41 -14 -19 7 -26 -8 -103 -226 -69 -195
-95 -275 -121 -370 -27 -96 -62 -252 -62 -275 0 -42 16 4 46 133 17 75 39 163
49 195 15 51 18 55 31 42 10 -10 35 -15 75 -15 65 0 75 -5 188 -99 51 -43 129
-149 151 -205 9 -25 30 -36 30 -16 0 16 -57 113 -97 165 -22 28 -74 77 -116
108 l-77 58 47 33 c60 41 169 166 207 237 38 72 45 152 17 196 -42 67 -168 97
-224 53z m140 -12 c18 -5 44 -23 58 -39 48 -58 27 -150 -61 -270 -42 -58 -156
-165 -184 -174 -11 -4 -40 1 -65 10 -26 10 -55 15 -70 11 -29 -7 -29 -7 -14
31 6 15 40 111 75 213 36 101 69 189 74 194 7 7 10 -4 11 -29 l1 -40 8 33 c9
39 14 45 55 66 29 15 47 14 112 -6z m-257 -488 c11 -7 4 -10 -27 -10 -24 0
-43 5 -43 10 0 13 50 13 70 0z"/>
</g>
</svg>
