<?xml version="1.0" standalone="no"?>
<!DOCTYPE svg PUBLIC "-//W3C//DTD SVG 20010904//EN"
 "http://www.w3.org/TR/2001/REC-SVG-20010904/DTD/svg10.dtd">
<svg version="1.0" xmlns="http://www.w3.org/2000/svg"
 width="124.000000pt" height="166.000000pt" viewBox="0 0 124.000000 166.000000"
 preserveAspectRatio="xMidYMid meet">
<metadata>
Created by potrace 1.16, written by Peter Selinger 2001-2019
</metadata>
<g transform="translate(0.000000,166.000000) scale(0.100000,-0.100000)"
fill="#000000" stroke="none">
<path d="M615 1322 c-119 -41 -240 -148 -265 -235 -24 -89 -3 -112 164 -181
130 -54 159 -74 187 -133 21 -42 22 -52 12 -110 -14 -79 -44 -128 -95 -154
-54 -27 -208 -60 -290 -62 -40 -1 -66 -6 -64 -12 5 -15 120 -10 216 10 171 35
232 84 252 207 21 122 -27 198 -157 252 -212 87 -229 101 -206 175 24 83 184
217 272 228 54 8 87 -10 139 -73 43 -53 70 -72 51 -35 -14 26 -80 104 -100
117 -31 21 -66 23 -116 6z"/>
</g>
</svg>
