<?xml version="1.0" standalone="no"?>
<!DOCTYPE svg PUBLIC "-//W3C//DTD SVG 20010904//EN"
 "http://www.w3.org/TR/2001/REC-SVG-20010904/DTD/svg10.dtd">
<svg version="1.0" xmlns="http://www.w3.org/2000/svg"
 width="124.000000pt" height="166.000000pt" viewBox="0 0 124.000000 166.000000"
 preserveAspectRatio="xMidYMid meet">
<metadata>
Created by potrace 1.16, written by Peter Selinger 2001-2019
</metadata>
<g transform="translate(0.000000,166.000000) scale(0.100000,-0.100000)"
fill="#000000" stroke="none">
<path d="M694 1260 c-14 -14 -154 -17 -348 -7 -98 5 -156 5 -152 -1 3 -5 65
-12 138 -16 73 -4 150 -9 170 -12 l36 -5 -18 -32 c-26 -45 -74 -202 -105 -340
-21 -96 -84 -310 -112 -383 -3 -8 0 -14 6 -14 6 0 16 12 22 28 26 67 82 267
104 367 34 152 62 250 91 316 l26 57 61 6 c72 8 127 24 127 37 0 12 -34 11
-46 -1z"/>
</g>
</svg>
