<?xml version="1.0" standalone="no"?>
<!DOCTYPE svg PUBLIC "-//W3C//DTD SVG 20010904//EN"
 "http://www.w3.org/TR/2001/REC-SVG-20010904/DTD/svg10.dtd">
<svg version="1.0" xmlns="http://www.w3.org/2000/svg"
 width="124.000000pt" height="166.000000pt" viewBox="0 0 124.000000 166.000000"
 preserveAspectRatio="xMidYMid meet">
<metadata>
Created by potrace 1.16, written by Peter Selinger 2001-2019
</metadata>
<g transform="translate(0.000000,166.000000) scale(0.100000,-0.100000)"
fill="#000000" stroke="none">
<path d="M901 1209 c-39 -16 -153 -113 -248 -213 -154 -160 -242 -349 -243
-517 0 -99 42 -178 109 -206 48 -21 143 -12 201 17 38 19 169 130 154 130 -14
0 -53 -26 -84 -56 -43 -41 -114 -73 -178 -81 -64 -7 -115 17 -150 70 -24 37
-27 49 -27 131 1 195 89 362 296 561 105 100 179 155 211 155 32 0 43 -42 28
-110 -16 -76 -8 -87 13 -19 22 68 21 105 -3 129 -22 22 -42 24 -79 9z"/>
</g>
</svg>
