<?xml version="1.0" standalone="no"?>
<!DOCTYPE svg PUBLIC "-//W3C//DTD SVG 20010904//EN"
 "http://www.w3.org/TR/2001/REC-SVG-20010904/DTD/svg10.dtd">
<svg version="1.0" xmlns="http://www.w3.org/2000/svg"
 width="124.000000pt" height="166.000000pt" viewBox="0 0 124.000000 166.000000"
 preserveAspectRatio="xMidYMid meet">
<metadata>
Created by potrace 1.16, written by Peter Selinger 2001-2019
</metadata>
<g transform="translate(0.000000,166.000000) scale(0.100000,-0.100000)"
fill="#000000" stroke="none">
<path d="M650 1088 c1 -317 12 -538 31 -595 9 -27 16 -33 40 -33 39 0 75 49
154 215 80 165 127 301 165 474 31 141 37 201 20 201 -5 0 -10 -14 -10 -30 0
-43 -56 -290 -86 -379 -33 -100 -98 -251 -141 -331 -66 -122 -100 -153 -122
-112 -19 36 -31 262 -31 571 1 213 -2 317 -9 319 -8 3 -11 -91 -11 -300z"/>
</g>
</svg>
