<?xml version="1.0" standalone="no"?>
<!DOCTYPE svg PUBLIC "-//W3C//DTD SVG 20010904//EN"
 "http://www.w3.org/TR/2001/REC-SVG-20010904/DTD/svg10.dtd">
<svg version="1.0" xmlns="http://www.w3.org/2000/svg"
 width="124.000000pt" height="166.000000pt" viewBox="0 0 124.000000 166.000000"
 preserveAspectRatio="xMidYMid meet">
<metadata>
Created by potrace 1.16, written by Peter Selinger 2001-2019
</metadata>
<g transform="translate(0.000000,166.000000) scale(0.100000,-0.100000)"
fill="#000000" stroke="none">
<path d="M893 1237 c-18 -56 -42 -138 -53 -182 -46 -176 -169 -526 -187 -532
-7 -3 -14 14 -19 43 -7 49 2 478 12 552 9 61 -11 53 -30 -12 -14 -47 -199
-508 -236 -588 -7 -16 -16 -28 -20 -28 -16 0 -20 111 -10 240 6 74 13 222 17
328 4 135 9 190 16 183 23 -23 27 -10 6 19 -12 16 -26 27 -31 24 -4 -3 -8 -74
-8 -157 0 -84 -5 -201 -11 -262 -13 -131 -16 -351 -5 -382 9 -29 31 -29 50 -1
11 17 172 403 224 540 4 9 6 -90 4 -220 -4 -240 4 -309 35 -319 7 -3 21 14 33
37 31 61 135 362 174 508 19 70 46 160 60 201 15 41 26 83 26 93 0 42 -17 11
-47 -85z"/>
</g>
</svg>
