<?xml version="1.0" standalone="no"?>
<!DOCTYPE svg PUBLIC "-//W3C//DTD SVG 20010904//EN"
 "http://www.w3.org/TR/2001/REC-SVG-20010904/DTD/svg10.dtd">
<svg version="1.0" xmlns="http://www.w3.org/2000/svg"
 width="124.000000pt" height="166.000000pt" viewBox="0 0 124.000000 166.000000"
 preserveAspectRatio="xMidYMid meet">
<metadata>
Created by potrace 1.16, written by Peter Selinger 2001-2019
</metadata>
<g transform="translate(0.000000,166.000000) scale(0.100000,-0.100000)"
fill="#000000" stroke="none">
<path d="M990 1477 c-45 -39 -183 -200 -250 -290 -36 -47 -67 -87 -70 -87 -3
0 -25 39 -50 87 -71 136 -152 254 -166 241 -3 -4 14 -35 39 -70 47 -66 157
-261 157 -279 0 -6 -46 -69 -102 -142 -57 -72 -144 -193 -194 -269 -50 -76
-93 -136 -96 -132 -4 3 -9 -4 -13 -16 -8 -24 -2 -35 15 -25 6 4 54 72 106 151
52 80 114 168 138 197 23 29 68 87 100 130 32 42 60 77 62 77 1 0 30 -57 64
-127 91 -186 128 -286 164 -446 4 -15 11 -25 16 -22 12 7 14 72 3 77 -5 2 -25
55 -45 118 -21 63 -71 184 -113 268 l-75 153 74 97 c40 54 116 147 167 207
l94 110 5 -45 6 -45 4 53 c6 58 -2 64 -40 29z"/>
</g>
</svg>
