<?xml version="1.0" standalone="no"?>
<!DOCTYPE svg PUBLIC "-//W3C//DTD SVG 20010904//EN"
 "http://www.w3.org/TR/2001/REC-SVG-20010904/DTD/svg10.dtd">
<svg version="1.0" xmlns="http://www.w3.org/2000/svg"
 width="124.000000pt" height="166.000000pt" viewBox="0 0 124.000000 166.000000"
 preserveAspectRatio="xMidYMid meet">
<metadata>
Created by potrace 1.16, written by Peter Selinger 2001-2019
</metadata>
<g transform="translate(0.000000,166.000000) scale(0.100000,-0.100000)"
fill="#000000" stroke="none">
<path d="M390 1512 c0 -5 9 -35 20 -67 16 -45 70 -298 70 -325 0 -3 -13 -14
-30 -23 -30 -18 -43 -54 -16 -44 25 10 38 -63 43 -238 3 -93 0 -206 -5 -250
-11 -80 -8 -105 10 -87 6 6 13 102 16 224 4 176 2 228 -12 297 -11 52 -14 87
-8 93 6 6 14 -2 20 -21 6 -17 15 -31 20 -31 18 0 21 13 7 34 -8 11 -15 26 -15
32 0 6 33 33 73 59 39 26 93 66 119 87 51 42 148 159 148 177 0 20 -15 11 -33
-19 -35 -59 -128 -149 -218 -210 -50 -34 -92 -60 -95 -58 -2 3 -13 51 -25 109
-23 117 -69 269 -81 269 -4 0 -8 -4 -8 -8z"/>
</g>
</svg>
