<?xml version="1.0" standalone="no"?>
<!DOCTYPE svg PUBLIC "-//W3C//DTD SVG 20010904//EN"
 "http://www.w3.org/TR/2001/REC-SVG-20010904/DTD/svg10.dtd">
<svg version="1.0" xmlns="http://www.w3.org/2000/svg"
 width="124.000000pt" height="166.000000pt" viewBox="0 0 124.000000 166.000000"
 preserveAspectRatio="xMidYMid meet">
<metadata>
Created by potrace 1.16, written by Peter Selinger 2001-2019
</metadata>
<g transform="translate(0.000000,166.000000) scale(0.100000,-0.100000)"
fill="#000000" stroke="none">
<path d="M420 1197 c-3 -3 -61 -7 -128 -8 -68 -2 -122 -7 -122 -12 0 -6 80 -7
208 -3 161 5 227 4 297 -8 332 -54 348 -60 353 -117 2 -24 -6 -52 -26 -90 -27
-50 -259 -389 -274 -399 -6 -5 -150 179 -172 220 -12 22 -70 62 -74 51 -2 -5
18 -31 44 -57 26 -27 72 -84 103 -127 31 -44 62 -87 70 -98 12 -17 9 -25 -34
-77 -26 -31 -97 -113 -158 -181 -145 -160 -172 -200 -148 -215 5 -3 55 1 112
10 57 9 190 19 295 23 104 4 196 11 202 15 24 15 2 23 -40 15 -24 -4 -95 -8
-158 -9 -108 0 -309 -19 -374 -36 -25 -6 -27 -5 -18 12 13 24 340 398 352 402
5 2 14 -6 20 -17 6 -12 15 -21 20 -21 16 0 11 22 -10 45 l-20 21 28 40 c101
142 214 307 241 352 54 93 57 154 9 186 -53 34 -576 107 -598 83z"/>
</g>
</svg>
