<?xml version="1.0" standalone="no"?>
<!DOCTYPE svg PUBLIC "-//W3C//DTD SVG 20010904//EN"
 "http://www.w3.org/TR/2001/REC-SVG-20010904/DTD/svg10.dtd">
<svg version="1.0" xmlns="http://www.w3.org/2000/svg"
 width="124.000000pt" height="166.000000pt" viewBox="0 0 124.000000 166.000000"
 preserveAspectRatio="xMidYMid meet">
<metadata>
Created by potrace 1.16, written by Peter Selinger 2001-2019
</metadata>
<g transform="translate(0.000000,166.000000) scale(0.100000,-0.100000)"
fill="#000000" stroke="none">
<path d="M762 820 c-85 -61 -151 -165 -197 -310 -50 -161 -45 -272 15 -285 80
-18 195 81 310 268 36 58 66 104 68 103 1 -2 -2 -46 -9 -98 -17 -149 9 -208
91 -208 36 0 63 18 110 74 20 24 15 21 -28 -12 -60 -47 -100 -54 -131 -23 -30
30 -34 76 -17 208 9 67 16 126 16 132 0 22 -18 10 -30 -19 -17 -41 -26 -31
-34 35 -7 62 -28 119 -53 147 -24 26 -64 22 -111 -12z m119 -35 c11 -24 24
-70 30 -102 6 -32 14 -62 19 -67 15 -15 -128 -234 -198 -302 -38 -37 -103 -73
-134 -74 -51 0 -63 88 -29 215 38 145 90 243 168 316 79 75 115 79 144 14z"/>
</g>
</svg>
