<?xml version="1.0" standalone="no"?>
<!DOCTYPE svg PUBLIC "-//W3C//DTD SVG 20010904//EN"
 "http://www.w3.org/TR/2001/REC-SVG-20010904/DTD/svg10.dtd">
<svg version="1.0" xmlns="http://www.w3.org/2000/svg"
 width="124.000000pt" height="166.000000pt" viewBox="0 0 124.000000 166.000000"
 preserveAspectRatio="xMidYMid meet">
<metadata>
Created by potrace 1.16, written by Peter Selinger 2001-2019
</metadata>
<g transform="translate(0.000000,166.000000) scale(0.100000,-0.100000)"
fill="#000000" stroke="none">
<path d="M497 1087 c-4 -77 -26 -220 -72 -456 l-66 -344 21 -21 c17 -17 32
-21 85 -19 122 3 215 63 289 186 58 98 57 173 -3 231 -34 32 -81 37 -127 13
-54 -29 -133 -123 -190 -229 -39 -74 -40 -71 -14 53 77 372 117 677 91 693 -4
3 -11 -45 -14 -107z m249 -448 c58 -61 28 -175 -76 -280 -61 -62 -123 -89
-207 -91 -63 -2 -77 6 -62 34 8 15 8 19 0 14 -17 -11 -14 -1 20 67 50 98 116
192 170 241 65 58 109 63 155 15z"/>
</g>
</svg>
