<?xml version="1.0" standalone="no"?>
<!DOCTYPE svg PUBLIC "-//W3C//DTD SVG 20010904//EN"
 "http://www.w3.org/TR/2001/REC-SVG-20010904/DTD/svg10.dtd">
<svg version="1.0" xmlns="http://www.w3.org/2000/svg"
 width="124.000000pt" height="166.000000pt" viewBox="0 0 124.000000 166.000000"
 preserveAspectRatio="xMidYMid meet">
<metadata>
Created by potrace 1.16, written by Peter Selinger 2001-2019
</metadata>
<g transform="translate(0.000000,166.000000) scale(0.100000,-0.100000)"
fill="#000000" stroke="none">
<path d="M645 957 c-98 -39 -215 -134 -261 -213 -95 -161 31 -412 189 -379 45
10 106 47 147 91 39 41 29 38 -43 -14 -105 -76 -177 -75 -242 0 -69 82 -82
204 -31 293 60 102 238 225 305 210 36 -8 53 -32 44 -65 -4 -16 -3 -21 5 -16
7 4 12 23 12 41 0 28 -6 37 -30 50 -34 18 -54 18 -95 2z"/>
</g>
</svg>
