<?xml version="1.0" standalone="no"?>
<!DOCTYPE svg PUBLIC "-//W3C//DTD SVG 20010904//EN"
 "http://www.w3.org/TR/2001/REC-SVG-20010904/DTD/svg10.dtd">
<svg version="1.0" xmlns="http://www.w3.org/2000/svg"
 width="124.000000pt" height="166.000000pt" viewBox="0 0 124.000000 166.000000"
 preserveAspectRatio="xMidYMid meet">
<metadata>
Created by potrace 1.16, written by Peter Selinger 2001-2019
</metadata>
<g transform="translate(0.000000,166.000000) scale(0.100000,-0.100000)"
fill="#000000" stroke="none">
<path d="M1021 1281 c-32 -66 -85 -186 -117 -268 -31 -81 -58 -149 -59 -151
-1 -1 -26 9 -56 23 -94 43 -145 31 -219 -52 -65 -74 -100 -155 -120 -277 -13
-80 -7 -96 34 -96 47 0 128 52 221 141 l82 79 -7 -39 c-14 -76 9 -132 47 -116
16 6 16 8 -4 16 -20 7 -23 16 -23 57 0 87 48 208 73 183 6 -6 18 -11 26 -11
11 0 11 4 -4 20 -17 19 -16 22 28 107 25 49 62 140 82 203 20 63 49 153 66
199 32 92 34 101 19 101 -6 0 -37 -54 -69 -119z m-32 -167 c-30 -96 -118 -289
-127 -280 -2 3 10 42 28 88 52 137 122 299 127 295 2 -3 -10 -49 -28 -103z
m-226 -240 c67 -23 72 -33 51 -96 -32 -98 -281 -317 -336 -296 -12 5 -13 17
-6 70 19 142 87 267 173 320 37 22 58 23 118 2z"/>
</g>
</svg>
