<?xml version="1.0" standalone="no"?>
<!DOCTYPE svg PUBLIC "-//W3C//DTD SVG 20010904//EN"
 "http://www.w3.org/TR/2001/REC-SVG-20010904/DTD/svg10.dtd">
<svg version="1.0" xmlns="http://www.w3.org/2000/svg"
 width="124.000000pt" height="166.000000pt" viewBox="0 0 124.000000 166.000000"
 preserveAspectRatio="xMidYMid meet">
<metadata>
Created by potrace 1.16, written by Peter Selinger 2001-2019
</metadata>
<g transform="translate(0.000000,166.000000) scale(0.100000,-0.100000)"
fill="#000000" stroke="none">
<path d="M520 1243 c-42 -8 -70 -42 -70 -84 0 -21 -13 -75 -29 -121 -35 -100
-152 -477 -177 -568 -18 -67 -27 -85 -46 -85 -6 0 -13 -6 -15 -12 -3 -7 1 -13
9 -13 21 0 267 99 333 133 123 66 224 189 304 373 62 144 76 242 40 288 -53
67 -225 111 -349 89z m219 -38 c162 -51 170 -130 41 -391 -93 -188 -184 -276
-360 -346 -173 -69 -172 -69 -166 -50 3 9 10 37 16 62 28 110 158 525 184 584
7 17 22 57 32 90 12 38 26 61 39 67 40 16 134 9 214 -16z"/>
</g>
</svg>
