<?xml version="1.0" standalone="no"?>
<!DOCTYPE svg PUBLIC "-//W3C//DTD SVG 20010904//EN"
 "http://www.w3.org/TR/2001/REC-SVG-20010904/DTD/svg10.dtd">
<svg version="1.0" xmlns="http://www.w3.org/2000/svg"
 width="124.000000pt" height="166.000000pt" viewBox="0 0 124.000000 166.000000"
 preserveAspectRatio="xMidYMid meet">
<metadata>
Created by potrace 1.16, written by Peter Selinger 2001-2019
</metadata>
<g transform="translate(0.000000,166.000000) scale(0.100000,-0.100000)"
fill="#000000" stroke="none">
<path d="M623 952 c-71 -57 -160 -157 -188 -213 -52 -101 -73 -294 -41 -370
21 -50 73 -97 120 -110 60 -16 161 -6 229 24 31 14 57 28 57 31 0 2 -39 -7
-87 -20 -97 -27 -143 -30 -194 -13 -45 16 -96 65 -110 107 -12 36 -8 201 6
233 4 11 24 19 53 23 88 12 147 29 204 57 138 69 174 166 96 255 -42 47 -81
46 -145 -4z m130 -12 c77 -91 13 -192 -159 -248 -71 -23 -164 -35 -164 -21 0
46 109 186 203 261 59 46 87 48 120 8z"/>
</g>
</svg>
