<?xml version="1.0" standalone="no"?>
<!DOCTYPE svg PUBLIC "-//W3C//DTD SVG 20010904//EN"
 "http://www.w3.org/TR/2001/REC-SVG-20010904/DTD/svg10.dtd">
<svg version="1.0" xmlns="http://www.w3.org/2000/svg"
 width="124.000000pt" height="166.000000pt" viewBox="0 0 124.000000 166.000000"
 preserveAspectRatio="xMidYMid meet">
<metadata>
Created by potrace 1.16, written by Peter Selinger 2001-2019
</metadata>
<g transform="translate(0.000000,166.000000) scale(0.100000,-0.100000)"
fill="#000000" stroke="none">
<path d="M845 1442 c-50 -31 -94 -89 -111 -149 -13 -46 -16 -87 -12 -210 l5
-153 -71 0 c-85 0 -204 -24 -225 -45 -19 -19 -5 -19 50 1 64 22 238 31 250 13
30 -48 -31 -469 -97 -672 -16 -48 -13 -70 6 -51 12 12 70 258 96 401 9 54 17
151 18 215 1 111 2 118 21 119 58 2 111 12 123 23 10 9 -4 10 -65 5 -43 -4
-79 -6 -81 -5 -8 9 -18 249 -12 296 18 131 99 222 182 206 45 -8 111 -70 129
-120 7 -20 17 -36 21 -36 11 0 10 2 -8 46 -9 22 -30 54 -47 72 -60 63 -116 78
-172 44z"/>
</g>
</svg>
