<?xml version="1.0" standalone="no"?>
<!DOCTYPE svg PUBLIC "-//W3C//DTD SVG 20010904//EN"
 "http://www.w3.org/TR/2001/REC-SVG-20010904/DTD/svg10.dtd">
<svg version="1.0" xmlns="http://www.w3.org/2000/svg"
 width="124.000000pt" height="166.000000pt" viewBox="0 0 124.000000 166.000000"
 preserveAspectRatio="xMidYMid meet">
<metadata>
Created by potrace 1.16, written by Peter Selinger 2001-2019
</metadata>
<g transform="translate(0.000000,166.000000) scale(0.100000,-0.100000)"
fill="#000000" stroke="none">
<path d="M532 1100 c-110 -79 -183 -302 -112 -340 32 -17 84 -11 141 17 52 26
167 131 200 183 15 22 16 13 20 -150 7 -363 6 -410 -18 -485 -30 -96 -58 -120
-175 -156 l-93 -28 -21 24 c-23 25 -38 96 -29 141 l5 29 -15 -30 c-27 -56 3
-169 48 -180 37 -10 208 50 239 82 76 79 96 198 80 485 -10 197 -6 348 12 376
3 6 2 13 -4 17 -9 5 -14 -4 -36 -65 -3 -10 -17 0 -46 33 -71 84 -127 97 -196
47z m137 -15 c19 -13 45 -40 59 -60 23 -32 24 -38 12 -61 -22 -40 -142 -148
-192 -172 -59 -29 -113 -29 -129 -1 -24 46 16 176 76 248 62 73 118 88 174 46z"/>
</g>
</svg>
