<?xml version="1.0" standalone="no"?>
<!DOCTYPE svg PUBLIC "-//W3C//DTD SVG 20010904//EN"
 "http://www.w3.org/TR/2001/REC-SVG-20010904/DTD/svg10.dtd">
<svg version="1.0" xmlns="http://www.w3.org/2000/svg"
 width="124.000000pt" height="166.000000pt" viewBox="0 0 124.000000 166.000000"
 preserveAspectRatio="xMidYMid meet">
<metadata>
Created by potrace 1.16, written by Peter Selinger 2001-2019
</metadata>
<g transform="translate(0.000000,166.000000) scale(0.100000,-0.100000)"
fill="#000000" stroke="none">
<path d="M770 1462 c0 -221 -79 -528 -239 -929 -39 -98 -3 -64 52 49 42 85 72
131 122 186 37 40 69 71 71 69 3 -2 -9 -39 -26 -81 -48 -119 -53 -247 -11
-261 40 -12 87 20 144 100 15 22 7 17 -31 -18 -64 -59 -99 -77 -113 -56 -19
26 -3 152 29 230 41 99 45 116 32 124 -13 8 -61 -35 -131 -118 -27 -32 -49
-55 -49 -52 0 3 16 51 35 106 79 226 115 382 130 563 l7 78 19 -31 c10 -17 21
-31 23 -31 8 0 -35 94 -50 110 -12 12 -14 7 -14 -38z"/>
</g>
</svg>
