<?xml version="1.0" standalone="no"?>
<!DOCTYPE svg PUBLIC "-//W3C//DTD SVG 20010904//EN"
 "http://www.w3.org/TR/2001/REC-SVG-20010904/DTD/svg10.dtd">
<svg version="1.0" xmlns="http://www.w3.org/2000/svg"
 width="124.000000pt" height="166.000000pt" viewBox="0 0 124.000000 166.000000"
 preserveAspectRatio="xMidYMid meet">
<metadata>
Created by potrace 1.16, written by Peter Selinger 2001-2019
</metadata>
<g transform="translate(0.000000,166.000000) scale(0.100000,-0.100000)"
fill="#000000" stroke="none">
<path d="M520 1215 c0 -10 64 -95 72 -95 15 0 8 15 -23 58 -26 36 -49 53 -49
37z"/>
<path d="M401 933 c-43 -24 -66 -32 -69 -24 -3 9 -7 9 -18 0 -8 -6 -14 -15
-14 -20 0 -20 52 -7 107 26 63 38 90 43 99 20 3 -8 -15 -120 -40 -250 -47
-242 -58 -365 -32 -365 13 0 114 124 151 185 13 22 4 16 -31 -20 -27 -28 -64
-68 -82 -90 l-33 -40 5 70 c2 39 24 166 47 283 34 173 40 217 31 237 -16 35
-44 32 -121 -12z"/>
</g>
</svg>
