<?xml version="1.0" standalone="no"?>
<!DOCTYPE svg PUBLIC "-//W3C//DTD SVG 20010904//EN"
 "http://www.w3.org/TR/2001/REC-SVG-20010904/DTD/svg10.dtd">
<svg version="1.0" xmlns="http://www.w3.org/2000/svg"
 width="124.000000pt" height="166.000000pt" viewBox="0 0 124.000000 166.000000"
 preserveAspectRatio="xMidYMid meet">
<metadata>
Created by potrace 1.16, written by Peter Selinger 2001-2019
</metadata>
<g transform="translate(0.000000,166.000000) scale(0.100000,-0.100000)"
fill="#000000" stroke="none">
<path d="M609 1313 c21 -37 70 -88 77 -81 8 9 -62 98 -77 98 -6 0 -6 -7 0 -17z"/>
<path d="M712 528 c3 -386 2 -405 -17 -443 -11 -22 -35 -50 -54 -62 -33 -22
-33 -23 -9 -23 34 0 84 57 99 112 9 32 9 127 3 368 -4 179 -8 353 -9 388 0 34
-4 62 -8 62 -4 0 -7 -181 -5 -402z"/>
</g>
</svg>
