<?xml version="1.0" standalone="no"?>
<!DOCTYPE svg PUBLIC "-//W3C//DTD SVG 20010904//EN"
 "http://www.w3.org/TR/2001/REC-SVG-20010904/DTD/svg10.dtd">
<svg version="1.0" xmlns="http://www.w3.org/2000/svg"
 width="124.000000pt" height="166.000000pt" viewBox="0 0 124.000000 166.000000"
 preserveAspectRatio="xMidYMid meet">
<metadata>
Created by potrace 1.16, written by Peter Selinger 2001-2019
</metadata>
<g transform="translate(0.000000,166.000000) scale(0.100000,-0.100000)"
fill="#000000" stroke="none">
<path d="M575 1406 c-23 -35 -69 -228 -100 -416 -35 -219 -81 -483 -105 -600
-26 -132 -31 -173 -21 -189 5 -7 14 -10 21 -6 9 6 9 9 0 15 -9 5 0 70 34 251
25 134 64 357 86 494 43 269 81 428 107 457 9 11 11 18 5 18 -6 0 -19 -11 -27
-24z"/>
<path d="M713 796 c-73 -39 -168 -110 -196 -148 -12 -16 -27 -28 -34 -28 -21
0 -15 -26 10 -39 12 -6 39 -38 60 -70 21 -33 79 -108 128 -167 50 -60 102
-128 116 -151 24 -42 43 -55 43 -30 0 16 -48 82 -142 195 -43 51 -100 125
-127 166 -28 41 -55 76 -62 78 -24 8 120 126 205 168 47 23 86 46 86 51 0 15
-22 8 -87 -25z"/>
</g>
</svg>
