<?xml version="1.0" standalone="no"?>
<!DOCTYPE svg PUBLIC "-//W3C//DTD SVG 20010904//EN"
 "http://www.w3.org/TR/2001/REC-SVG-20010904/DTD/svg10.dtd">
<svg version="1.0" xmlns="http://www.w3.org/2000/svg"
 width="124.000000pt" height="166.000000pt" viewBox="0 0 124.000000 166.000000"
 preserveAspectRatio="xMidYMid meet">
<metadata>
Created by potrace 1.16, written by Peter Selinger 2001-2019
</metadata>
<g transform="translate(0.000000,166.000000) scale(0.100000,-0.100000)"
fill="#000000" stroke="none">
<path d="M577 1337 c6 -121 1 -174 -48 -522 -17 -116 -33 -271 -35 -345 -5
-123 -4 -138 14 -166 39 -62 112 -49 167 29 16 23 45 59 64 80 65 72 15 37
-59 -42 -84 -89 -106 -100 -141 -72 -23 19 -24 23 -23 168 2 114 10 205 39
393 48 322 59 590 25 590 -5 0 -7 -47 -3 -113z"/>
</g>
</svg>
