<?xml version="1.0" standalone="no"?>
<!DOCTYPE svg PUBLIC "-//W3C//DTD SVG 20010904//EN"
 "http://www.w3.org/TR/2001/REC-SVG-20010904/DTD/svg10.dtd">
<svg version="1.0" xmlns="http://www.w3.org/2000/svg"
 width="124.000000pt" height="166.000000pt" viewBox="0 0 124.000000 166.000000"
 preserveAspectRatio="xMidYMid meet">
<metadata>
Created by potrace 1.16, written by Peter Selinger 2001-2019
</metadata>
<g transform="translate(0.000000,166.000000) scale(0.100000,-0.100000)"
fill="#000000" stroke="none">
<path d="M505 848 c-11 -32 -100 -382 -116 -458 -20 -91 -24 -150 -11 -150 11
0 20 21 83 178 84 210 129 286 189 317 36 19 50 4 50 -53 0 -58 -34 -222 -65
-313 -28 -84 -30 -92 -14 -87 6 2 19 24 29 50 40 105 204 348 235 348 36 0 31
-147 -10 -278 -28 -89 -28 -132 0 -67 35 80 57 195 53 271 -4 85 -21 114 -57
95 -24 -13 -114 -131 -156 -204 -15 -26 -29 -47 -30 -45 -2 2 3 29 10 61 21
91 29 201 16 226 -29 54 -118 0 -174 -107 -21 -39 -60 -128 -88 -199 -28 -70
-53 -130 -56 -133 -10 -10 43 215 111 468 13 50 20 92 15 92 -5 0 -12 -6 -14
-12z"/>
</g>
</svg>
