<?xml version="1.0" standalone="no"?>
<!DOCTYPE svg PUBLIC "-//W3C//DTD SVG 20010904//EN"
 "http://www.w3.org/TR/2001/REC-SVG-20010904/DTD/svg10.dtd">
<svg version="1.0" xmlns="http://www.w3.org/2000/svg"
 width="124.000000pt" height="166.000000pt" viewBox="0 0 124.000000 166.000000"
 preserveAspectRatio="xMidYMid meet">
<metadata>
Created by potrace 1.16, written by Peter Selinger 2001-2019
</metadata>
<g transform="translate(0.000000,166.000000) scale(0.100000,-0.100000)"
fill="#000000" stroke="none">
<path d="M230 820 c0 -150 -16 -263 -70 -485 -32 -134 -35 -155 -22 -155 4 0
17 32 29 70 59 186 250 500 304 500 14 0 11 -55 -11 -189 -31 -191 -35 -260
-17 -303 19 -46 54 -58 101 -35 l31 15 -38 -5 c-82 -12 -97 43 -67 242 42 273
39 325 -19 289 -58 -36 -114 -113 -195 -265 -60 -112 -64 -114 -41 -17 33 144
46 311 25 332 -5 5 -10 8 -10 6z"/>
</g>
</svg>
