<?xml version="1.0" standalone="no"?>
<!DOCTYPE svg PUBLIC "-//W3C//DTD SVG 20010904//EN"
 "http://www.w3.org/TR/2001/REC-SVG-20010904/DTD/svg10.dtd">
<svg version="1.0" xmlns="http://www.w3.org/2000/svg"
 width="124.000000pt" height="166.000000pt" viewBox="0 0 124.000000 166.000000"
 preserveAspectRatio="xMidYMid meet">
<metadata>
Created by potrace 1.16, written by Peter Selinger 2001-2019
</metadata>
<g transform="translate(0.000000,166.000000) scale(0.100000,-0.100000)"
fill="#000000" stroke="none">
<path d="M869 1285 c-3 -2 -91 -11 -196 -19 -106 -8 -197 -17 -203 -21 -20
-12 0 -24 28 -16 15 5 81 11 147 15 66 4 140 9 165 12 47 5 79 19 69 28 -3 4
-8 4 -10 1z"/>
<path d="M564 1177 c-68 -77 -122 -187 -220 -448 -116 -308 -126 -339 -122
-392 4 -57 29 -70 128 -64 130 8 370 97 370 137 0 4 3 17 6 27 4 10 -8 1 -25
-19 -27 -32 -48 -43 -141 -73 -140 -45 -236 -62 -281 -49 -31 9 -34 14 -37 49
-1 26 10 74 32 135 146 412 220 580 296 679 51 65 47 78 -6 18z"/>
<path d="M730 901 c-19 -10 -74 -28 -121 -40 -115 -29 -226 -81 -214 -101 3
-5 29 5 58 21 29 16 98 40 153 55 109 29 165 52 172 72 5 16 -6 15 -48 -7z"/>
</g>
</svg>
