<?xml version="1.0" standalone="no"?>
<!DOCTYPE svg PUBLIC "-//W3C//DTD SVG 20010904//EN"
 "http://www.w3.org/TR/2001/REC-SVG-20010904/DTD/svg10.dtd">
<svg version="1.0" xmlns="http://www.w3.org/2000/svg"
 width="124.000000pt" height="166.000000pt" viewBox="0 0 124.000000 166.000000"
 preserveAspectRatio="xMidYMid meet">
<metadata>
Created by potrace 1.16, written by Peter Selinger 2001-2019
</metadata>
<g transform="translate(0.000000,166.000000) scale(0.100000,-0.100000)"
fill="#000000" stroke="none">
<path d="M515 887 c-53 -56 -75 -124 -82 -258 -8 -154 17 -211 107 -238 94
-28 198 38 269 169 84 157 79 322 -11 354 -30 11 -138 -2 -138 -16 0 -7 19 -8
53 -4 66 9 101 -4 122 -43 22 -43 19 -108 -10 -200 -70 -221 -261 -320 -352
-182 -45 67 -23 287 37 381 32 50 46 60 83 60 18 0 19 2 7 10 -27 17 -43 11
-85 -33z"/>
</g>
</svg>
