<?xml version="1.0" standalone="no"?>
<!DOCTYPE svg PUBLIC "-//W3C//DTD SVG 20010904//EN"
 "http://www.w3.org/TR/2001/REC-SVG-20010904/DTD/svg10.dtd">
<svg version="1.0" xmlns="http://www.w3.org/2000/svg"
 width="124.000000pt" height="166.000000pt" viewBox="0 0 124.000000 166.000000"
 preserveAspectRatio="xMidYMid meet">
<metadata>
Created by potrace 1.16, written by Peter Selinger 2001-2019
</metadata>
<g transform="translate(0.000000,166.000000) scale(0.100000,-0.100000)"
fill="#000000" stroke="none">
<path d="M578 1033 c-30 -23 -39 -40 -56 -103 -38 -140 -62 -285 -82 -495 -11
-116 -23 -229 -26 -253 -4 -27 -3 -42 4 -42 14 0 18 25 42 279 11 118 21 215
22 215 44 16 173 90 221 126 64 48 122 122 134 169 9 37 -16 72 -76 103 -72
38 -135 38 -183 1z m195 -29 c23 -16 43 -39 45 -51 4 -28 -20 -74 -64 -122
-38 -43 -167 -131 -228 -156 l-39 -16 5 43 c9 76 51 240 58 228 4 -6 10 6 14
29 10 63 39 84 109 79 43 -3 67 -12 100 -34z"/>
</g>
</svg>
