<?xml version="1.0" standalone="no"?>
<!DOCTYPE svg PUBLIC "-//W3C//DTD SVG 20010904//EN"
 "http://www.w3.org/TR/2001/REC-SVG-20010904/DTD/svg10.dtd">
<svg version="1.0" xmlns="http://www.w3.org/2000/svg"
 width="124.000000pt" height="166.000000pt" viewBox="0 0 124.000000 166.000000"
 preserveAspectRatio="xMidYMid meet">
<metadata>
Created by potrace 1.16, written by Peter Selinger 2001-2019
</metadata>
<g transform="translate(0.000000,166.000000) scale(0.100000,-0.100000)"
fill="#000000" stroke="none">
<path d="M680 1129 c-19 -12 -61 -49 -93 -82 -120 -122 -189 -354 -111 -373
37 -9 94 32 222 164 61 64 112 113 112 110 0 -3 -9 -31 -20 -64 -12 -32 -52
-185 -90 -339 -38 -154 -73 -290 -76 -303 -12 -43 22 -23 97 56 129 135 151
176 34 62 -59 -58 -105 -97 -102 -88 3 9 33 128 67 265 66 271 89 348 128 436
26 61 22 87 -8 50 -15 -19 -19 -20 -24 -7 -3 9 -6 29 -6 45 0 17 -7 43 -15 59
-19 37 -63 40 -115 9z m101 -20 c6 -12 13 -47 16 -79 l6 -57 -119 -121 c-111
-112 -173 -162 -201 -162 -40 0 -13 154 44 248 86 142 220 233 254 171z"/>
</g>
</svg>
