<?xml version="1.0" standalone="no"?>
<!DOCTYPE svg PUBLIC "-//W3C//DTD SVG 20010904//EN"
 "http://www.w3.org/TR/2001/REC-SVG-20010904/DTD/svg10.dtd">
<svg version="1.0" xmlns="http://www.w3.org/2000/svg"
 width="124.000000pt" height="166.000000pt" viewBox="0 0 124.000000 166.000000"
 preserveAspectRatio="xMidYMid meet">
<metadata>
Created by potrace 1.16, written by Peter Selinger 2001-2019
</metadata>
<g transform="translate(0.000000,166.000000) scale(0.100000,-0.100000)"
fill="#000000" stroke="none">
<path d="M646 1109 c-2 -8 -7 -77 -10 -154 -9 -209 -1 -195 -132 -217 -185
-32 -297 -57 -308 -69 -8 -9 -4 -10 19 -4 17 4 113 21 215 39 l185 32 0 -220
c0 -205 2 -224 22 -267 12 -26 26 -50 33 -54 27 -17 59 7 110 82 28 43 40 65
25 48 -79 -87 -107 -115 -116 -115 -6 0 -20 21 -32 48 -20 42 -22 66 -25 241
-2 106 -1 204 2 216 5 19 18 26 83 40 77 17 140 42 130 51 -3 3 -34 -3 -69
-14 -34 -11 -81 -22 -102 -26 l-39 -7 7 48 c3 26 9 101 13 165 3 65 10 115 15
112 14 -9 9 13 -7 26 -12 10 -16 10 -19 -1z"/>
</g>
</svg>
