<?xml version="1.0" standalone="no"?>
<!DOCTYPE svg PUBLIC "-//W3C//DTD SVG 20010904//EN"
 "http://www.w3.org/TR/2001/REC-SVG-20010904/DTD/svg10.dtd">
<svg version="1.0" xmlns="http://www.w3.org/2000/svg"
 width="124.000000pt" height="166.000000pt" viewBox="0 0 124.000000 166.000000"
 preserveAspectRatio="xMidYMid meet">
<metadata>
Created by potrace 1.16, written by Peter Selinger 2001-2019
</metadata>
<g transform="translate(0.000000,166.000000) scale(0.100000,-0.100000)"
fill="#000000" stroke="none">
<path d="M524 955 c19 -121 26 -186 36 -335 6 -91 15 -190 21 -220 12 -60 34
-110 49 -110 11 0 63 86 143 240 36 69 101 195 146 280 45 85 81 158 81 162 0
32 -33 -20 -126 -199 -214 -415 -242 -464 -254 -442 -16 29 -30 128 -40 279
-16 236 -31 353 -48 370 -13 13 -14 10 -8 -25z"/>
</g>
</svg>
