<?xml version="1.0" standalone="no"?>
<!DOCTYPE svg PUBLIC "-//W3C//DTD SVG 20010904//EN"
 "http://www.w3.org/TR/2001/REC-SVG-20010904/DTD/svg10.dtd">
<svg version="1.0" xmlns="http://www.w3.org/2000/svg"
 width="124.000000pt" height="166.000000pt" viewBox="0 0 124.000000 166.000000"
 preserveAspectRatio="xMidYMid meet">
<metadata>
Created by potrace 1.16, written by Peter Selinger 2001-2019
</metadata>
<g transform="translate(0.000000,166.000000) scale(0.100000,-0.100000)"
fill="#000000" stroke="none">
<path d="M360 918 c0 -15 5 -39 12 -55 8 -19 14 -134 17 -347 4 -231 9 -320
18 -323 14 -5 59 71 181 305 50 94 100 184 111 198 l21 27 0 -220 c0 -221 4
-248 37 -236 18 7 69 108 117 233 21 52 52 131 71 175 33 79 72 226 55 209 -5
-5 -27 -58 -48 -119 -96 -264 -183 -465 -201 -465 -8 0 -11 72 -11 224 0 125
-4 227 -9 230 -16 10 -66 -64 -145 -217 -43 -81 -100 -186 -127 -235 l-49 -87
0 295 c0 221 -3 310 -14 353 -16 67 -36 97 -36 55z"/>
</g>
</svg>
