<?xml version="1.0" standalone="no"?>
<!DOCTYPE svg PUBLIC "-//W3C//DTD SVG 20010904//EN"
 "http://www.w3.org/TR/2001/REC-SVG-20010904/DTD/svg10.dtd">
<svg version="1.0" xmlns="http://www.w3.org/2000/svg"
 width="124.000000pt" height="166.000000pt" viewBox="0 0 124.000000 166.000000"
 preserveAspectRatio="xMidYMid meet">
<metadata>
Created by potrace 1.16, written by Peter Selinger 2001-2019
</metadata>
<g transform="translate(0.000000,166.000000) scale(0.100000,-0.100000)"
fill="#000000" stroke="none">
<path d="M677 968 c-18 -24 -62 -82 -97 -131 -71 -100 -61 -102 -126 23 -47
89 -57 113 -44 105 6 -3 10 -1 10 5 0 13 -28 25 -37 16 -11 -10 15 -74 69
-169 l49 -89 -27 -36 c-62 -81 -264 -331 -274 -337 -12 -7 -13 -35 -1 -35 7 0
231 275 286 352 11 15 23 28 27 28 8 0 35 -58 89 -197 22 -57 44 -105 49 -108
16 -10 19 11 6 37 -8 14 -28 64 -46 109 -18 46 -43 107 -56 136 l-25 51 88
121 c51 70 89 115 91 106 6 -25 22 -6 22 26 0 40 -13 37 -53 -13z"/>
</g>
</svg>
