<?xml version="1.0" standalone="no"?>
<!DOCTYPE svg PUBLIC "-//W3C//DTD SVG 20010904//EN"
 "http://www.w3.org/TR/2001/REC-SVG-20010904/DTD/svg10.dtd">
<svg version="1.0" xmlns="http://www.w3.org/2000/svg"
 width="124.000000pt" height="166.000000pt" viewBox="0 0 124.000000 166.000000"
 preserveAspectRatio="xMidYMid meet">
<metadata>
Created by potrace 1.16, written by Peter Selinger 2001-2019
</metadata>
<g transform="translate(0.000000,166.000000) scale(0.100000,-0.100000)"
fill="#000000" stroke="none">
<path d="M760 1134 c-6 -14 -10 -32 -10 -40 0 -45 -121 -244 -198 -326 -32
-34 -61 -37 -64 -5 -1 12 -2 102 -2 199 -1 98 -5 178 -9 178 -11 0 -14 -368
-4 -397 11 -29 35 -36 63 -18 28 18 138 165 181 242 l33 58 0 -40 c0 -22 9
-83 20 -135 34 -158 41 -218 41 -339 0 -142 -18 -210 -67 -259 -32 -32 -38
-34 -84 -30 -33 3 -61 14 -84 32 -47 35 -90 108 -81 137 5 14 4 19 -4 15 -19
-12 -12 -71 12 -106 42 -62 91 -93 156 -98 53 -4 61 -2 93 27 46 40 66 92 77
199 11 109 -1 255 -35 408 -22 101 -25 135 -21 222 3 56 4 102 1 102 -2 0 -9
-12 -14 -26z"/>
</g>
</svg>
