<?xml version="1.0" standalone="no"?>
<!DOCTYPE svg PUBLIC "-//W3C//DTD SVG 20010904//EN"
 "http://www.w3.org/TR/2001/REC-SVG-20010904/DTD/svg10.dtd">
<svg version="1.0" xmlns="http://www.w3.org/2000/svg"
 width="124.000000pt" height="166.000000pt" viewBox="0 0 124.000000 166.000000"
 preserveAspectRatio="xMidYMid meet">
<metadata>
Created by potrace 1.16, written by Peter Selinger 2001-2019
</metadata>
<g transform="translate(0.000000,166.000000) scale(0.100000,-0.100000)"
fill="#000000" stroke="none">
<path d="M605 690 c-55 -4 -116 -10 -135 -14 -52 -11 -164 -47 -175 -57 -15
-15 13 -10 99 16 55 17 124 28 216 34 74 6 136 8 138 6 5 -4 -23 -58 -71 -137
-36 -58 -47 -69 -77 -74 -43 -8 -110 -41 -110 -54 0 -13 0 -13 54 11 26 11 51
19 56 17 5 -2 -26 -57 -70 -123 -88 -132 -98 -165 -51 -165 27 0 241 101 276
130 37 31 -3 17 -125 -44 -72 -36 -139 -66 -147 -66 -22 0 -13 18 79 157 l82
123 48 6 c27 4 45 11 42 16 -4 6 -19 8 -35 6 -16 -3 -29 -2 -29 1 0 3 18 35
39 70 50 80 65 116 57 136 -6 16 -4 16 -161 5z"/>
</g>
</svg>
