<?xml version="1.0" standalone="no"?>
<!DOCTYPE svg PUBLIC "-//W3C//DTD SVG 20010904//EN"
 "http://www.w3.org/TR/2001/REC-SVG-20010904/DTD/svg10.dtd">
<svg version="1.0" xmlns="http://www.w3.org/2000/svg"
 width="124.000000pt" height="166.000000pt" viewBox="0 0 124.000000 166.000000"
 preserveAspectRatio="xMidYMid meet">
<metadata>
Created by potrace 1.16, written by Peter Selinger 2001-2019
</metadata>
<g transform="translate(0.000000,166.000000) scale(0.100000,-0.100000)"
fill="#000000" stroke="none">
<path d="M630 1279 c-19 -6 -47 -13 -61 -16 -39 -7 -55 -51 -85 -233 -45 -272
-44 -526 2 -635 55 -132 175 -147 264 -33 121 152 201 465 170 663 -15 100
-63 192 -119 229 -49 32 -113 42 -171 25z m138 -28 c52 -27 78 -58 109 -132
24 -58 27 -76 27 -189 0 -69 -6 -154 -13 -190 -15 -75 -83 -257 -119 -315
-165 -269 -343 -65 -302 348 12 130 34 273 56 369 12 52 22 72 43 87 58 42
142 51 199 22z"/>
</g>
</svg>
