<?xml version="1.0" standalone="no"?>
<!DOCTYPE svg PUBLIC "-//W3C//DTD SVG 20010904//EN"
 "http://www.w3.org/TR/2001/REC-SVG-20010904/DTD/svg10.dtd">
<svg version="1.0" xmlns="http://www.w3.org/2000/svg"
 width="124.000000pt" height="166.000000pt" viewBox="0 0 124.000000 166.000000"
 preserveAspectRatio="xMidYMid meet">
<metadata>
Created by potrace 1.16, written by Peter Selinger 2001-2019
</metadata>
<g transform="translate(0.000000,166.000000) scale(0.100000,-0.100000)"
fill="#000000" stroke="none">
<path d="M250 1123 c-20 -7 -50 -34 -50 -44 0 -5 15 0 33 11 50 31 114 27 159
-10 134 -111 23 -358 -264 -587 -76 -62 -75 -83 5 -83 36 0 93 15 182 46 72
25 157 51 189 57 33 7 61 18 64 25 7 21 -71 4 -245 -54 -89 -30 -176 -54 -193
-54 -29 0 -23 7 109 137 125 124 143 147 181 224 54 111 62 183 28 249 -31 60
-78 90 -137 89 -25 0 -53 -3 -61 -6z"/>
</g>
</svg>
