<?xml version="1.0" standalone="no"?>
<!DOCTYPE svg PUBLIC "-//W3C//DTD SVG 20010904//EN"
 "http://www.w3.org/TR/2001/REC-SVG-20010904/DTD/svg10.dtd">
<svg version="1.0" xmlns="http://www.w3.org/2000/svg"
 width="124.000000pt" height="166.000000pt" viewBox="0 0 124.000000 166.000000"
 preserveAspectRatio="xMidYMid meet">
<metadata>
Created by potrace 1.16, written by Peter Selinger 2001-2019
</metadata>
<g transform="translate(0.000000,166.000000) scale(0.100000,-0.100000)"
fill="#000000" stroke="none">
<path d="M501 1208 c-41 -4 -76 -10 -79 -13 -14 -13 12 -15 86 -6 201 25 362
-58 362 -188 0 -15 -14 -55 -31 -89 -34 -70 -103 -136 -216 -210 -39 -26 -72
-52 -72 -58 -1 -9 33 -10 122 -7 135 6 209 -5 252 -39 20 -16 25 -28 25 -67 0
-135 -192 -326 -327 -326 -27 0 -43 -5 -43 -12 0 -19 14 -22 59 -12 77 17 154
61 217 125 77 77 114 149 114 222 0 47 -4 58 -30 82 -41 38 -111 53 -238 48
-56 -1 -102 -2 -102 -2 0 1 38 29 84 63 105 76 159 137 187 210 40 106 9 183
-98 243 -62 35 -157 47 -272 36z"/>
</g>
</svg>
