<?xml version="1.0" standalone="no"?>
<!DOCTYPE svg PUBLIC "-//W3C//DTD SVG 20010904//EN"
 "http://www.w3.org/TR/2001/REC-SVG-20010904/DTD/svg10.dtd">
<svg version="1.0" xmlns="http://www.w3.org/2000/svg"
 width="124.000000pt" height="166.000000pt" viewBox="0 0 124.000000 166.000000"
 preserveAspectRatio="xMidYMid meet">
<metadata>
Created by potrace 1.16, written by Peter Selinger 2001-2019
</metadata>
<g transform="translate(0.000000,166.000000) scale(0.100000,-0.100000)"
fill="#000000" stroke="none">
<path d="M520 1329 c-1 -2 -3 -30 -5 -62 -7 -84 -38 -152 -149 -326 -104 -164
-131 -215 -120 -233 7 -11 22 -10 293 8 l94 7 -7 -44 c-4 -24 -22 -107 -41
-184 -18 -77 -31 -143 -29 -147 9 -14 23 -9 35 13 8 15 8 19 0 15 -16 -10 -14
-1 18 133 16 66 33 140 36 165 l7 46 99 0 c116 0 169 16 169 51 0 20 -1 21
-12 6 -21 -27 -64 -37 -159 -37 -68 0 -89 3 -89 13 0 49 44 327 55 350 14 28
6 37 -14 14 -10 -13 -42 -190 -57 -319 l-6 -58 -62 0 c-33 0 -115 -7 -181 -15
-65 -7 -123 -11 -127 -9 -11 7 28 80 116 219 99 154 136 232 143 303 3 31 10
60 15 63 5 3 2 12 -7 19 -8 7 -15 11 -15 9z"/>
</g>
</svg>
