<?xml version="1.0" standalone="no"?>
<!DOCTYPE svg PUBLIC "-//W3C//DTD SVG 20010904//EN"
 "http://www.w3.org/TR/2001/REC-SVG-20010904/DTD/svg10.dtd">
<svg version="1.0" xmlns="http://www.w3.org/2000/svg"
 width="124.000000pt" height="166.000000pt" viewBox="0 0 124.000000 166.000000"
 preserveAspectRatio="xMidYMid meet">
<metadata>
Created by potrace 1.16, written by Peter Selinger 2001-2019
</metadata>
<g transform="translate(0.000000,166.000000) scale(0.100000,-0.100000)"
fill="#000000" stroke="none">
<path d="M286 1312 c-2 -4 -12 -48 -20 -97 -52 -304 -33 -345 203 -449 169
-73 285 -137 289 -159 4 -19 -34 -47 -194 -148 -58 -36 -137 -79 -176 -95 -68
-27 -71 -28 -84 -9 -14 18 -14 18 -14 -2 0 -46 53 -37 185 30 76 38 246 147
283 180 26 25 29 58 5 79 -22 19 -165 91 -296 148 -182 79 -216 124 -203 267
8 85 30 218 41 246 7 17 -9 25 -19 9z"/>
<path d="M850 1167 c-33 -21 -46 -22 -200 -20 -191 3 -233 -6 -238 -49 -2 -17
2 -28 8 -28 7 0 10 6 7 14 -13 34 21 41 207 41 188 0 220 6 255 49 18 22 3 19
-39 -7z"/>
</g>
</svg>
