<?xml version="1.0" standalone="no"?>
<!DOCTYPE svg PUBLIC "-//W3C//DTD SVG 20010904//EN"
 "http://www.w3.org/TR/2001/REC-SVG-20010904/DTD/svg10.dtd">
<svg version="1.0" xmlns="http://www.w3.org/2000/svg"
 width="124.000000pt" height="166.000000pt" viewBox="0 0 124.000000 166.000000"
 preserveAspectRatio="xMidYMid meet">
<metadata>
Created by potrace 1.16, written by Peter Selinger 2001-2019
</metadata>
<g transform="translate(0.000000,166.000000) scale(0.100000,-0.100000)"
fill="#000000" stroke="none">
<path d="M520 1143 c-94 -107 -167 -320 -177 -518 -6 -121 6 -174 48 -209 50
-42 90 -36 154 25 56 53 115 153 115 195 0 32 -45 64 -90 64 -44 0 -146 -34
-172 -57 -10 -9 -18 -23 -18 -31 0 -12 6 -10 24 7 25 23 130 61 171 61 12 0
33 -8 46 -19 21 -17 22 -21 11 -57 -25 -80 -130 -194 -179 -194 -31 0 -70 36
-84 77 -31 94 15 370 85 516 40 84 110 169 131 160 8 -3 15 -1 15 5 0 8 -22
22 -35 22 -2 0 -22 -21 -45 -47z"/>
</g>
</svg>
