<?xml version="1.0" standalone="no"?>
<!DOCTYPE svg PUBLIC "-//W3C//DTD SVG 20010904//EN"
 "http://www.w3.org/TR/2001/REC-SVG-20010904/DTD/svg10.dtd">
<svg version="1.0" xmlns="http://www.w3.org/2000/svg"
 width="124.000000pt" height="166.000000pt" viewBox="0 0 124.000000 166.000000"
 preserveAspectRatio="xMidYMid meet">
<metadata>
Created by potrace 1.16, written by Peter Selinger 2001-2019
</metadata>
<g transform="translate(0.000000,166.000000) scale(0.100000,-0.100000)"
fill="#000000" stroke="none">
<path d="M515 1243 c-71 -9 -174 -35 -184 -47 -14 -17 -4 -26 30 -26 20 0 27
4 23 14 -7 19 83 36 227 43 125 6 187 0 195 -21 3 -7 -20 -71 -50 -142 -30
-71 -84 -223 -121 -339 -36 -115 -77 -241 -91 -279 -13 -38 -22 -71 -20 -73
14 -14 31 26 87 200 98 309 117 364 170 488 59 142 61 163 18 178 -30 10 -215
13 -284 4z"/>
</g>
</svg>
