<?xml version="1.0" standalone="no"?>
<!DOCTYPE svg PUBLIC "-//W3C//DTD SVG 20010904//EN"
 "http://www.w3.org/TR/2001/REC-SVG-20010904/DTD/svg10.dtd">
<svg version="1.0" xmlns="http://www.w3.org/2000/svg"
 width="124.000000pt" height="166.000000pt" viewBox="0 0 124.000000 166.000000"
 preserveAspectRatio="xMidYMid meet">
<metadata>
Created by potrace 1.16, written by Peter Selinger 2001-2019
</metadata>
<g transform="translate(0.000000,166.000000) scale(0.100000,-0.100000)"
fill="#000000" stroke="none">
<path d="M690 1193 c-136 -94 -277 -374 -295 -589 -11 -130 31 -265 107 -343
38 -39 71 -40 130 -2 75 48 178 194 178 253 0 16 -7 8 -24 -27 -36 -77 -108
-168 -161 -203 -27 -18 -54 -32 -61 -32 -28 0 -82 62 -115 132 -32 69 -34 79
-33 178 0 128 24 224 89 355 81 162 188 282 247 273 21 -3 23 -8 26 -68 2 -74
9 -110 20 -110 11 0 2 173 -10 187 -15 18 -69 16 -98 -4z"/>
<path d="M855 699 c-49 -22 -127 -53 -173 -69 -88 -30 -108 -40 -75 -40 27 0
117 31 236 82 53 23 99 39 102 36 3 -3 -8 -48 -24 -101 -16 -52 -34 -130 -40
-172 -14 -97 -14 -205 -1 -205 6 0 10 26 10 58 1 95 18 201 51 309 30 101 34
133 14 139 -5 2 -50 -15 -100 -37z"/>
</g>
</svg>
