<?xml version="1.0" standalone="no"?>
<!DOCTYPE svg PUBLIC "-//W3C//DTD SVG 20010904//EN"
 "http://www.w3.org/TR/2001/REC-SVG-20010904/DTD/svg10.dtd">
<svg version="1.0" xmlns="http://www.w3.org/2000/svg"
 width="124.000000pt" height="166.000000pt" viewBox="0 0 124.000000 166.000000"
 preserveAspectRatio="xMidYMid meet">
<metadata>
Created by potrace 1.16, written by Peter Selinger 2001-2019
</metadata>
<g transform="translate(0.000000,166.000000) scale(0.100000,-0.100000)"
fill="#000000" stroke="none">
<path d="M675 1324 c-70 -36 -105 -96 -105 -177 0 -73 33 -136 125 -235 41
-44 75 -83 75 -86 0 -3 -27 -49 -60 -103 -67 -109 -96 -177 -106 -252 -12 -93
20 -130 104 -119 114 16 163 81 170 227 5 97 -7 152 -43 205 -14 20 -25 42
-25 48 0 6 16 33 35 59 37 52 40 59 26 59 -5 0 -26 -23 -47 -52 l-37 -52 -77
81 c-99 104 -124 153 -118 234 5 66 24 100 78 137 18 12 43 22 55 22 28 0 82
-36 109 -73 29 -39 35 -156 11 -227 -9 -28 -14 -54 -11 -57 3 -3 8 0 11 8 28
78 35 110 35 163 -1 80 -26 136 -81 175 -47 35 -80 38 -124 15z m171 -601 c23
-59 16 -213 -12 -268 -35 -70 -157 -111 -200 -68 -41 41 7 194 112 355 l46 72
19 -25 c10 -13 26 -43 35 -66z"/>
</g>
</svg>
