<?xml version="1.0" standalone="no"?>
<!DOCTYPE svg PUBLIC "-//W3C//DTD SVG 20010904//EN"
 "http://www.w3.org/TR/2001/REC-SVG-20010904/DTD/svg10.dtd">
<svg version="1.0" xmlns="http://www.w3.org/2000/svg"
 width="124.000000pt" height="166.000000pt" viewBox="0 0 124.000000 166.000000"
 preserveAspectRatio="xMidYMid meet">
<metadata>
Created by potrace 1.16, written by Peter Selinger 2001-2019
</metadata>
<g transform="translate(0.000000,166.000000) scale(0.100000,-0.100000)"
fill="#000000" stroke="none">
<path d="M871 1395 c-62 -27 -155 -135 -205 -237 -45 -92 -76 -188 -76 -238 0
-90 46 -133 119 -112 51 16 100 53 217 164 53 51 94 84 90 73 -4 -11 -45 -168
-92 -350 -46 -181 -86 -340 -90 -352 -6 -22 9 -33 20 -14 3 4 44 163 91 352
48 189 95 363 105 385 41 93 49 239 15 287 -38 55 -122 73 -194 42z m134 -21
c50 -24 69 -71 61 -157 -8 -82 -25 -107 -180 -253 -115 -109 -192 -154 -232
-136 -13 7 -29 24 -35 39 -33 82 62 322 171 433 85 87 144 108 215 74z"/>
</g>
</svg>
