<?xml version="1.0" standalone="no"?>
<!DOCTYPE svg PUBLIC "-//W3C//DTD SVG 20010904//EN"
 "http://www.w3.org/TR/2001/REC-SVG-20010904/DTD/svg10.dtd">
<svg version="1.0" xmlns="http://www.w3.org/2000/svg"
 width="124.000000pt" height="166.000000pt" viewBox="0 0 124.000000 166.000000"
 preserveAspectRatio="xMidYMid meet">
<metadata>
Created by potrace 1.16, written by Peter Selinger 2001-2019
</metadata>
<g transform="translate(0.000000,166.000000) scale(0.100000,-0.100000)"
fill="#000000" stroke="none">
<path d="M556 1432 c-53 -102 -112 -268 -145 -407 -12 -49 -28 -114 -37 -143
-9 -30 -13 -56 -11 -59 13 -12 38 52 62 161 30 136 79 282 130 389 19 41 35
77 35 80 0 17 -21 4 -34 -21z"/>
<path d="M398 435 c-29 -29 -54 -136 -28 -120 6 3 10 15 10 26 0 10 3 18 8 18
40 -7 102 40 102 77 0 21 -5 24 -34 24 -22 0 -42 -8 -58 -25z m32 -35 c-6 -11
-16 -20 -22 -20 -6 0 -3 9 7 20 10 11 20 20 22 20 2 0 -1 -9 -7 -20z"/>
</g>
</svg>
