<?xml version="1.0" standalone="no"?>
<!DOCTYPE svg PUBLIC "-//W3C//DTD SVG 20010904//EN"
 "http://www.w3.org/TR/2001/REC-SVG-20010904/DTD/svg10.dtd">
<svg version="1.0" xmlns="http://www.w3.org/2000/svg"
 width="124.000000pt" height="166.000000pt" viewBox="0 0 124.000000 166.000000"
 preserveAspectRatio="xMidYMid meet">
<metadata>
Created by potrace 1.16, written by Peter Selinger 2001-2019
</metadata>
<g transform="translate(0.000000,166.000000) scale(0.100000,-0.100000)"
fill="#000000" stroke="none">
<path d="M797 1203 c-4 -3 -7 -50 -7 -104 l0 -97 -67 -11 c-38 -7 -76 -14 -85
-17 -16 -5 -18 3 -18 65 0 74 7 104 21 95 5 -3 9 0 9 6 0 6 -8 10 -17 8 -15
-3 -19 -18 -23 -93 -4 -80 -7 -90 -25 -93 -11 -2 -67 -15 -125 -29 -109 -26
-180 -56 -180 -74 0 -6 3 -9 8 -7 59 30 113 49 192 67 52 12 103 24 113 27 15
5 17 -5 17 -113 0 -65 -3 -162 -7 -215 l-6 -97 -70 -21 c-47 -14 -72 -18 -76
-11 -5 7 -15 5 -30 -5 -44 -31 -7 -35 82 -9 48 14 90 25 93 25 3 0 2 -46 -2
-101 -7 -104 2 -124 25 -59 7 23 7 29 -1 24 -8 -5 -9 13 -4 66 3 41 8 76 10
78 3 2 47 16 99 31 l95 28 5 -54 c3 -30 4 -128 2 -216 -3 -98 -1 -150 4 -132
5 17 9 115 10 218 1 184 2 189 22 194 46 12 124 59 127 76 3 15 0 14 -21 -6
-14 -12 -48 -30 -76 -39 -47 -15 -51 -15 -51 0 -1 44 -20 321 -25 348 l-5 31
97 26 c54 14 107 29 117 33 15 6 17 4 11 -7 -8 -12 -6 -12 8 0 23 18 23 46 0
36 -41 -18 -225 -67 -230 -61 -8 8 -9 137 0 169 7 25 -1 36 -16 20z m4 -298
c4 -38 9 -126 13 -195 l7 -125 -88 -24 c-48 -13 -94 -26 -100 -29 -10 -3 -13
42 -13 206 l0 211 63 15 c34 8 73 14 87 13 23 -2 25 -6 31 -72z"/>
</g>
</svg>
