<?xml version="1.0" standalone="no"?>
<!DOCTYPE svg PUBLIC "-//W3C//DTD SVG 20010904//EN"
 "http://www.w3.org/TR/2001/REC-SVG-20010904/DTD/svg10.dtd">
<svg version="1.0" xmlns="http://www.w3.org/2000/svg"
 width="124.000000pt" height="166.000000pt" viewBox="0 0 124.000000 166.000000"
 preserveAspectRatio="xMidYMid meet">
<metadata>
Created by potrace 1.16, written by Peter Selinger 2001-2019
</metadata>
<g transform="translate(0.000000,166.000000) scale(0.100000,-0.100000)"
fill="#000000" stroke="none">
<path d="M710 1507 c0 -173 -4 -193 -42 -206 -80 -28 -225 -158 -292 -263 -42
-67 -50 -95 -37 -130 17 -46 60 -60 210 -67 l135 -6 -2 -50 c-8 -172 -26 -351
-36 -357 -19 -13 -131 -9 -151 5 -18 14 -18 34 0 82 4 11 -2 7 -14 -10 -48
-69 -15 -105 96 -105 l73 0 0 -110 c0 -67 4 -110 10 -110 6 0 10 43 10 110 l0
111 66 30 c122 54 244 207 244 304 0 81 -50 115 -184 123 l-89 5 7 135 c3 74
6 172 6 218 0 95 6 101 87 89 32 -5 46 -12 53 -28 8 -21 9 -21 9 4 1 31 -13
39 -88 48 l-54 6 3 120 c1 66 3 133 4 149 0 16 -5 31 -11 33 -10 4 -13 -27
-13 -130z m-10 -289 c0 -40 -3 -138 -7 -217 l-6 -143 -131 4 c-144 6 -181 15
-198 52 -26 58 105 230 249 326 41 27 79 50 84 50 5 0 9 -33 9 -72z m174 -389
c120 -33 113 -151 -19 -284 -52 -53 -161 -123 -173 -111 -4 5 17 348 24 384 4
20 10 22 67 22 34 0 79 -5 101 -11z"/>
</g>
</svg>
