<?xml version="1.0" standalone="no"?>
<!DOCTYPE svg PUBLIC "-//W3C//DTD SVG 20010904//EN"
 "http://www.w3.org/TR/2001/REC-SVG-20010904/DTD/svg10.dtd">
<svg version="1.0" xmlns="http://www.w3.org/2000/svg"
 width="124.000000pt" height="166.000000pt" viewBox="0 0 124.000000 166.000000"
 preserveAspectRatio="xMidYMid meet">
<metadata>
Created by potrace 1.16, written by Peter Selinger 2001-2019
</metadata>
<g transform="translate(0.000000,166.000000) scale(0.100000,-0.100000)"
fill="#000000" stroke="none">
<path d="M953 1413 c-50 -90 -61 -113 -98 -198 -21 -49 -75 -193 -120 -320
-98 -273 -125 -340 -216 -548 -93 -212 -112 -267 -91 -267 10 0 42 65 42 84 0
8 34 92 76 187 76 176 153 374 239 619 65 182 127 329 175 412 23 41 34 68 26
68 -7 0 -22 -17 -33 -37z"/>
<path d="M366 1304 c-17 -17 -22 -64 -7 -64 5 0 11 12 13 28 2 22 9 28 34 30
38 4 89 -41 99 -88 9 -40 -36 -122 -89 -161 -99 -72 -176 -53 -176 43 0 54 19
106 47 128 30 23 25 38 -6 18 -33 -20 -54 -77 -55 -145 -1 -80 21 -107 85
-105 117 5 243 156 205 247 -29 68 -113 107 -150 69z"/>
<path d="M900 612 c-52 -20 -80 -65 -88 -143 -6 -61 19 -89 79 -89 97 0 187
115 157 200 -17 50 -71 61 -148 32z m110 -20 c66 -53 -22 -192 -121 -192 -56
0 -70 34 -49 110 14 51 30 69 75 85 53 19 69 18 95 -3z"/>
</g>
</svg>
