<?xml version="1.0" standalone="no"?>
<!DOCTYPE svg PUBLIC "-//W3C//DTD SVG 20010904//EN"
 "http://www.w3.org/TR/2001/REC-SVG-20010904/DTD/svg10.dtd">
<svg version="1.0" xmlns="http://www.w3.org/2000/svg"
 width="124.000000pt" height="166.000000pt" viewBox="0 0 124.000000 166.000000"
 preserveAspectRatio="xMidYMid meet">
<metadata>
Created by potrace 1.16, written by Peter Selinger 2001-2019
</metadata>
<g transform="translate(0.000000,166.000000) scale(0.100000,-0.100000)"
fill="#000000" stroke="none">
<path d="M495 1271 c-131 -32 -205 -136 -205 -287 0 -97 15 -163 68 -291 l25
-63 -33 -72 c-55 -123 -52 -266 6 -304 32 -22 81 -12 167 33 l68 36 79 -78
c44 -44 82 -77 85 -74 3 3 -29 41 -70 85 -41 43 -75 82 -75 85 0 4 54 59 120
122 66 64 120 119 120 122 0 19 -34 -9 -140 -112 -114 -110 -121 -115 -135
-97 -36 47 -134 192 -148 221 -17 31 -16 31 27 90 24 32 81 101 126 153 145
167 217 293 197 343 -9 24 -62 54 -136 77 -66 21 -95 23 -146 11z m193 -51
c34 -16 65 -36 68 -44 18 -46 -52 -160 -210 -344 -58 -67 -113 -133 -122 -147
-9 -14 -20 -25 -24 -25 -12 0 -50 96 -72 183 -15 60 -19 101 -16 161 5 95 29
148 85 195 80 67 177 74 291 21z m-232 -707 c31 -49 69 -104 85 -124 16 -20
29 -40 29 -43 0 -10 -72 -52 -123 -71 -37 -14 -53 -16 -71 -7 -55 25 -61 161
-12 270 16 34 30 62 32 62 1 0 28 -39 60 -87z"/>
</g>
</svg>
