<?xml version="1.0" standalone="no"?>
<!DOCTYPE svg PUBLIC "-//W3C//DTD SVG 20010904//EN"
 "http://www.w3.org/TR/2001/REC-SVG-20010904/DTD/svg10.dtd">
<svg version="1.0" xmlns="http://www.w3.org/2000/svg"
 width="124.000000pt" height="166.000000pt" viewBox="0 0 124.000000 166.000000"
 preserveAspectRatio="xMidYMid meet">
<metadata>
Created by potrace 1.16, written by Peter Selinger 2001-2019
</metadata>
<g transform="translate(0.000000,166.000000) scale(0.100000,-0.100000)"
fill="#000000" stroke="none">
<path d="M732 1350 c-93 -75 -118 -106 -166 -205 -72 -147 -90 -237 -90 -450
0 -238 26 -344 100 -418 48 -49 164 -89 199 -69 14 7 7 10 -30 14 -26 3 -72
19 -103 35 -100 51 -137 145 -149 384 -9 197 24 378 95 514 42 80 148 191 215
224 36 18 38 21 16 21 -15 0 -49 -19 -87 -50z"/>
</g>
</svg>
