<?xml version="1.0" standalone="no"?>
<!DOCTYPE svg PUBLIC "-//W3C//DTD SVG 20010904//EN"
 "http://www.w3.org/TR/2001/REC-SVG-20010904/DTD/svg10.dtd">
<svg version="1.0" xmlns="http://www.w3.org/2000/svg"
 width="124.000000pt" height="166.000000pt" viewBox="0 0 124.000000 166.000000"
 preserveAspectRatio="xMidYMid meet">
<metadata>
Created by potrace 1.16, written by Peter Selinger 2001-2019
</metadata>
<g transform="translate(0.000000,166.000000) scale(0.100000,-0.100000)"
fill="#000000" stroke="none">
<path d="M530 1351 c0 -6 31 -35 69 -65 89 -71 131 -120 198 -235 154 -260
160 -359 37 -620 -69 -147 -163 -266 -230 -291 -26 -10 -33 -30 -10 -30 23 0
113 76 155 132 49 66 132 232 166 331 29 87 33 177 10 253 -31 106 -148 310
-223 390 -47 50 -172 148 -172 135z"/>
</g>
</svg>
