<?xml version="1.0" standalone="no"?>
<!DOCTYPE svg PUBLIC "-//W3C//DTD SVG 20010904//EN"
 "http://www.w3.org/TR/2001/REC-SVG-20010904/DTD/svg10.dtd">
<svg version="1.0" xmlns="http://www.w3.org/2000/svg"
 width="124.000000pt" height="166.000000pt" viewBox="0 0 124.000000 166.000000"
 preserveAspectRatio="xMidYMid meet">
<metadata>
Created by potrace 1.16, written by Peter Selinger 2001-2019
</metadata>
<g transform="translate(0.000000,166.000000) scale(0.100000,-0.100000)"
fill="#000000" stroke="none">
<path d="M661 1411 c-10 -10 -31 -40 -46 -65 -15 -25 -30 -46 -35 -46 -10 0
-86 82 -92 101 -4 10 -9 11 -17 3 -9 -9 0 -24 38 -63 28 -29 51 -54 51 -56 0
-3 -15 -12 -32 -21 -42 -22 -128 -93 -128 -106 0 -6 15 1 33 16 42 35 120 87
124 83 2 -2 -27 -57 -64 -123 -78 -141 -115 -221 -105 -228 5 -3 21 21 36 52
50 103 160 302 167 302 16 0 132 -110 212 -200 79 -90 124 -130 146 -130 5 0
-23 33 -62 73 -40 39 -97 99 -127 132 -30 33 -74 77 -97 97 -24 21 -43 40 -43
42 0 3 26 10 58 16 31 6 66 15 77 20 18 8 18 9 -5 9 -14 0 -51 -5 -82 -13 -32
-7 -58 -11 -58 -9 0 14 56 96 77 113 19 15 21 20 9 20 -9 0 -25 -9 -35 -19z"/>
</g>
</svg>
