<?xml version="1.0" standalone="no"?>
<!DOCTYPE svg PUBLIC "-//W3C//DTD SVG 20010904//EN"
 "http://www.w3.org/TR/2001/REC-SVG-20010904/DTD/svg10.dtd">
<svg version="1.0" xmlns="http://www.w3.org/2000/svg"
 width="124.000000pt" height="166.000000pt" viewBox="0 0 124.000000 166.000000"
 preserveAspectRatio="xMidYMid meet">
<metadata>
Created by potrace 1.16, written by Peter Selinger 2001-2019
</metadata>
<g transform="translate(0.000000,166.000000) scale(0.100000,-0.100000)"
fill="#000000" stroke="none">
<path d="M902 1418 c-88 -158 -205 -382 -231 -443 -36 -85 -170 -443 -200
-538 -13 -37 -27 -67 -32 -67 -5 0 -9 -9 -9 -20 0 -11 4 -20 9 -20 17 0 33 30
56 102 49 159 181 500 241 623 69 143 180 346 193 355 12 8 23 60 12 60 -5 0
-23 -24 -39 -52z"/>
</g>
</svg>
