<?xml version="1.0" standalone="no"?>
<!DOCTYPE svg PUBLIC "-//W3C//DTD SVG 20010904//EN"
 "http://www.w3.org/TR/2001/REC-SVG-20010904/DTD/svg10.dtd">
<svg version="1.0" xmlns="http://www.w3.org/2000/svg"
 width="124.000000pt" height="166.000000pt" viewBox="0 0 124.000000 166.000000"
 preserveAspectRatio="xMidYMid meet">
<metadata>
Created by potrace 1.16, written by Peter Selinger 2001-2019
</metadata>
<g transform="translate(0.000000,166.000000) scale(0.100000,-0.100000)"
fill="#000000" stroke="none">
<path d="M435 1089 c-13 -20 103 -189 130 -189 8 0 -7 28 -37 68 -28 37 -57
82 -65 100 -14 35 -18 38 -28 21z"/>
<path d="M307 536 c-4 -9 3 -16 16 -20 12 -3 48 -28 79 -56 52 -46 79 -61 77
-42 0 10 -112 103 -142 119 -21 10 -26 10 -30 -1z"/>
</g>
</svg>
