<?xml version="1.0" standalone="no"?>
<!DOCTYPE svg PUBLIC "-//W3C//DTD SVG 20010904//EN"
 "http://www.w3.org/TR/2001/REC-SVG-20010904/DTD/svg10.dtd">
<svg version="1.0" xmlns="http://www.w3.org/2000/svg"
 width="124.000000pt" height="166.000000pt" viewBox="0 0 124.000000 166.000000"
 preserveAspectRatio="xMidYMid meet">
<metadata>
Created by potrace 1.16, written by Peter Selinger 2001-2019
</metadata>
<g transform="translate(0.000000,166.000000) scale(0.100000,-0.100000)"
fill="#000000" stroke="none">
<path d="M530 1227 c0 -30 104 -157 127 -157 8 0 -10 29 -41 65 -30 35 -57 73
-61 85 -7 22 -25 27 -25 7z"/>
<path d="M545 663 c33 -80 24 -168 -26 -271 -40 -81 -138 -205 -194 -244 -25
-18 -43 -34 -40 -36 13 -13 73 28 128 88 120 130 185 278 173 393 -6 59 -18
87 -38 87 -6 0 -7 -8 -3 -17z"/>
</g>
</svg>
