<?xml version="1.0" standalone="no"?>
<!DOCTYPE svg PUBLIC "-//W3C//DTD SVG 20010904//EN"
 "http://www.w3.org/TR/2001/REC-SVG-20010904/DTD/svg10.dtd">
<svg version="1.0" xmlns="http://www.w3.org/2000/svg"
 width="124.000000pt" height="166.000000pt" viewBox="0 0 124.000000 166.000000"
 preserveAspectRatio="xMidYMid meet">
<metadata>
Created by potrace 1.16, written by Peter Selinger 2001-2019
</metadata>
<g transform="translate(0.000000,166.000000) scale(0.100000,-0.100000)"
fill="#000000" stroke="none">
<path d="M671 1251 c-63 -34 -208 -57 -302 -48 -53 5 -59 3 -47 -10 11 -13 32
-15 129 -10 l115 5 -32 -108 c-44 -145 -173 -602 -188 -665 -6 -27 -17 -51
-24 -51 -6 -1 -32 -2 -57 -3 -25 0 -45 -5 -45 -11 0 -11 340 -13 356 -2 5 4
18 18 29 31 l20 23 -35 -20 c-30 -17 -48 -19 -133 -14 l-98 4 7 32 c11 56 173
629 210 746 13 42 18 47 57 57 23 7 58 25 77 42 44 38 31 38 -39 2z"/>
</g>
</svg>
