<?xml version="1.0" standalone="no"?>
<!DOCTYPE svg PUBLIC "-//W3C//DTD SVG 20010904//EN"
 "http://www.w3.org/TR/2001/REC-SVG-20010904/DTD/svg10.dtd">
<svg version="1.0" xmlns="http://www.w3.org/2000/svg"
 width="124.000000pt" height="166.000000pt" viewBox="0 0 124.000000 166.000000"
 preserveAspectRatio="xMidYMid meet">
<metadata>
Created by potrace 1.16, written by Peter Selinger 2001-2019
</metadata>
<g transform="translate(0.000000,166.000000) scale(0.100000,-0.100000)"
fill="#000000" stroke="none">
<path d="M320 955 c0 -8 6 -15 13 -16 85 -3 191 -32 372 -99 72 -27 149 -54
173 -60 23 -6 42 -15 42 -20 0 -19 -56 -73 -133 -127 -45 -32 -134 -101 -197
-153 -63 -52 -132 -108 -153 -123 -36 -27 -47 -47 -27 -47 5 0 20 8 32 19 166
138 282 231 351 280 99 71 149 124 145 154 -2 17 -17 26 -63 41 -33 10 -119
41 -191 67 -104 38 -325 99 -358 99 -3 0 -6 -7 -6 -15z"/>
</g>
</svg>
