<?xml version="1.0" standalone="no"?>
<!DOCTYPE svg PUBLIC "-//W3C//DTD SVG 20010904//EN"
 "http://www.w3.org/TR/2001/REC-SVG-20010904/DTD/svg10.dtd">
<svg version="1.0" xmlns="http://www.w3.org/2000/svg"
 width="124.000000pt" height="166.000000pt" viewBox="0 0 124.000000 166.000000"
 preserveAspectRatio="xMidYMid meet">
<metadata>
Created by potrace 1.16, written by Peter Selinger 2001-2019
</metadata>
<g transform="translate(0.000000,166.000000) scale(0.100000,-0.100000)"
fill="#000000" stroke="none">
<path d="M412 1225 c-86 -26 -130 -71 -120 -121 6 -31 25 -27 20 4 -10 73 137
131 258 102 99 -24 146 -94 120 -177 -16 -49 -104 -181 -174 -261 -50 -57 -69
-93 -48 -91 16 1 179 220 215 288 38 73 45 118 28 164 -33 85 -178 130 -299
92z"/>
<path d="M470 317 c0 -18 49 -87 61 -87 12 0 12 2 -21 57 -25 43 -40 54 -40
30z"/>
</g>
</svg>
