<?xml version="1.0" standalone="no"?>
<!DOCTYPE svg PUBLIC "-//W3C//DTD SVG 20010904//EN"
 "http://www.w3.org/TR/2001/REC-SVG-20010904/DTD/svg10.dtd">
<svg version="1.0" xmlns="http://www.w3.org/2000/svg"
 width="124.000000pt" height="166.000000pt" viewBox="0 0 124.000000 166.000000"
 preserveAspectRatio="xMidYMid meet">
<metadata>
Created by potrace 1.16, written by Peter Selinger 2001-2019
</metadata>
<g transform="translate(0.000000,166.000000) scale(0.100000,-0.100000)"
fill="#000000" stroke="none">
<path d="M440 1360 c-8 -5 -12 -10 -10 -12 3 -2 72 -2 155 0 97 2 144 6 135
12 -19 13 -261 13 -280 0z"/>
<path d="M475 1288 c-8 -13 -20 -39 -25 -58 -14 -50 -46 -281 -65 -455 -21
-199 -31 -276 -57 -423 -19 -106 -20 -125 -7 -133 54 -34 480 24 443 61 -6 6
-27 3 -54 -6 -105 -37 -359 -60 -375 -34 -3 5 3 60 14 122 21 124 33 209 56
428 24 222 54 419 71 458 8 19 22 41 32 48 16 12 16 13 0 14 -9 0 -24 -10 -33
-22z"/>
</g>
</svg>
