<?xml version="1.0" standalone="no"?>
<!DOCTYPE svg PUBLIC "-//W3C//DTD SVG 20010904//EN"
 "http://www.w3.org/TR/2001/REC-SVG-20010904/DTD/svg10.dtd">
<svg version="1.0" xmlns="http://www.w3.org/2000/svg"
 width="124.000000pt" height="166.000000pt" viewBox="0 0 124.000000 166.000000"
 preserveAspectRatio="xMidYMid meet">
<metadata>
Created by potrace 1.16, written by Peter Selinger 2001-2019
</metadata>
<g transform="translate(0.000000,166.000000) scale(0.100000,-0.100000)"
fill="#000000" stroke="none">
<path d="M500 1273 c-8 -2 -21 -7 -29 -9 -37 -12 20 -28 165 -45 93 -12 168
-26 181 -35 28 -18 29 -48 7 -217 -18 -137 -15 -218 15 -427 11 -74 22 -169
25 -210 4 -41 9 -96 12 -122 l6 -46 -51 14 c-64 19 -322 16 -329 -4 -3 -9 24
-11 125 -6 102 5 141 3 192 -10 40 -10 68 -13 74 -7 11 11 -6 210 -33 391 -28
185 -33 284 -20 385 7 50 14 126 17 170 5 72 3 82 -15 98 -20 19 -110 36 -277
53 l-70 7 40 12 c38 12 38 13 10 13 -16 0 -37 -2 -45 -5z"/>
</g>
</svg>
