<?xml version="1.0" standalone="no"?>
<!DOCTYPE svg PUBLIC "-//W3C//DTD SVG 20010904//EN"
 "http://www.w3.org/TR/2001/REC-SVG-20010904/DTD/svg10.dtd">
<svg version="1.0" xmlns="http://www.w3.org/2000/svg"
 width="124.000000pt" height="166.000000pt" viewBox="0 0 124.000000 166.000000"
 preserveAspectRatio="xMidYMid meet">
<metadata>
Created by potrace 1.16, written by Peter Selinger 2001-2019
</metadata>
<g transform="translate(0.000000,166.000000) scale(0.100000,-0.100000)"
fill="#000000" stroke="none">
<path d="M545 1363 c-4 -10 -18 -49 -31 -86 -13 -37 -45 -109 -73 -160 -52
-97 -67 -144 -56 -177 10 -31 22 -24 17 10 -5 35 8 71 60 160 21 36 52 104 69
152 18 49 33 88 35 88 13 0 55 -113 140 -379 3 -9 8 -11 14 -5 13 13 -95 339
-127 382 -27 36 -38 40 -48 15z"/>
</g>
</svg>
