<?xml version="1.0" standalone="no"?>
<!DOCTYPE svg PUBLIC "-//W3C//DTD SVG 20010904//EN"
 "http://www.w3.org/TR/2001/REC-SVG-20010904/DTD/svg10.dtd">
<svg version="1.0" xmlns="http://www.w3.org/2000/svg"
 width="124.000000pt" height="166.000000pt" viewBox="0 0 124.000000 166.000000"
 preserveAspectRatio="xMidYMid meet">
<metadata>
Created by potrace 1.16, written by Peter Selinger 2001-2019
</metadata>
<g transform="translate(0.000000,166.000000) scale(0.100000,-0.100000)"
fill="#000000" stroke="none">
<path d="M617 1333 c-4 -6 -2 -37 4 -69 15 -81 7 -155 -47 -398 -117 -529
-142 -618 -197 -680 -27 -31 -40 -38 -82 -43 -35 -3 -62 0 -89 11 -38 16 -39
17 -21 36 20 23 9 26 -17 6 -25 -18 -22 -31 8 -55 36 -28 145 -30 189 -2 68
41 109 163 201 589 83 383 86 403 80 482 -6 86 -19 139 -29 123z"/>
</g>
</svg>
