<?xml version="1.0" standalone="no"?>
<!DOCTYPE svg PUBLIC "-//W3C//DTD SVG 20010904//EN"
 "http://www.w3.org/TR/2001/REC-SVG-20010904/DTD/svg10.dtd">
<svg version="1.0" xmlns="http://www.w3.org/2000/svg"
 width="124.000000pt" height="166.000000pt" viewBox="0 0 124.000000 166.000000"
 preserveAspectRatio="xMidYMid meet">
<metadata>
Created by potrace 1.16, written by Peter Selinger 2001-2019
</metadata>
<g transform="translate(0.000000,166.000000) scale(0.100000,-0.100000)"
fill="#000000" stroke="none">
<path d="M426 1383 c9 -35 33 -73 47 -73 5 0 3 8 -5 18 -9 9 -19 28 -23 41 -7
23 -6 23 38 -9 49 -35 48 -34 178 -185 96 -111 152 -165 174 -165 19 0 19 34
0 50 -12 10 -15 9 -15 -6 0 -15 -5 -13 -31 12 -17 16 -58 61 -91 99 -132 153
-231 245 -265 245 -10 0 -12 -8 -7 -27z"/>
</g>
</svg>
