<?xml version="1.0" standalone="no"?>
<!DOCTYPE svg PUBLIC "-//W3C//DTD SVG 20010904//EN"
 "http://www.w3.org/TR/2001/REC-SVG-20010904/DTD/svg10.dtd">
<svg version="1.0" xmlns="http://www.w3.org/2000/svg"
 width="124.000000pt" height="166.000000pt" viewBox="0 0 124.000000 166.000000"
 preserveAspectRatio="xMidYMid meet">
<metadata>
Created by potrace 1.16, written by Peter Selinger 2001-2019
</metadata>
<g transform="translate(0.000000,166.000000) scale(0.100000,-0.100000)"
fill="#000000" stroke="none">
<path d="M649 1387 c-48 -32 -79 -83 -79 -128 0 -46 12 -76 61 -149 63 -96 82
-140 71 -165 -15 -34 -69 -70 -140 -95 -34 -13 -65 -27 -68 -31 -9 -16 42 -37
104 -42 72 -6 104 -23 129 -70 16 -29 18 -65 18 -360 0 -180 3 -327 6 -327 13
0 19 114 19 361 0 353 -12 389 -141 410 -123 21 -120 19 -52 44 68 24 126 64
144 96 14 27 5 63 -34 124 -91 147 -97 159 -97 199 0 45 30 96 71 120 47 28
97 20 167 -24 34 -22 65 -40 68 -40 15 0 -15 26 -69 61 -73 47 -125 52 -178
16z"/>
</g>
</svg>
