<?xml version="1.0" standalone="no"?>
<!DOCTYPE svg PUBLIC "-//W3C//DTD SVG 20010904//EN"
 "http://www.w3.org/TR/2001/REC-SVG-20010904/DTD/svg10.dtd">
<svg version="1.0" xmlns="http://www.w3.org/2000/svg"
 width="124.000000pt" height="166.000000pt" viewBox="0 0 124.000000 166.000000"
 preserveAspectRatio="xMidYMid meet">
<metadata>
Created by potrace 1.16, written by Peter Selinger 2001-2019
</metadata>
<g transform="translate(0.000000,166.000000) scale(0.100000,-0.100000)"
fill="#000000" stroke="none">
<path d="M606 1475 c-22 -21 -25 -28 -16 -45 6 -11 15 -20 21 -20 6 0 6 7 -1
20 -15 27 25 52 77 48 32 -3 41 -8 55 -38 21 -42 23 -141 7 -289 -13 -115 -7
-164 26 -197 35 -35 82 -32 145 11 29 20 54 34 56 33 1 -2 -10 -30 -24 -63
-26 -57 -27 -67 -27 -230 1 -144 5 -192 28 -309 41 -212 35 -264 -33 -299 -26
-14 -52 -17 -102 -15 -56 3 -66 1 -55 -9 17 -17 104 -19 150 -4 20 7 48 26 62
42 34 41 33 113 -1 290 -17 88 -28 184 -31 279 -5 140 -4 148 22 220 52 142
46 160 -34 99 -64 -47 -96 -57 -130 -38 -39 23 -46 60 -33 194 22 220 12 308
-36 334 -37 20 -97 13 -126 -14z"/>
</g>
</svg>
