<?xml version="1.0" standalone="no"?>
<!DOCTYPE svg PUBLIC "-//W3C//DTD SVG 20010904//EN"
 "http://www.w3.org/TR/2001/REC-SVG-20010904/DTD/svg10.dtd">
<svg version="1.0" xmlns="http://www.w3.org/2000/svg"
 width="124.000000pt" height="166.000000pt" viewBox="0 0 124.000000 166.000000"
 preserveAspectRatio="xMidYMid meet">
<metadata>
Created by potrace 1.16, written by Peter Selinger 2001-2019
</metadata>
<g transform="translate(0.000000,166.000000) scale(0.100000,-0.100000)"
fill="#000000" stroke="none">
<path d="M834 1298 c-32 -64 -155 -219 -182 -229 -44 -17 -99 12 -182 96 -87
88 -119 100 -174 65 -55 -34 -143 -180 -108 -180 4 0 13 15 20 34 19 51 77
121 112 136 43 18 69 4 143 -76 90 -97 146 -121 207 -89 41 21 199 233 200
268 0 19 -21 4 -36 -25z"/>
</g>
</svg>
